%TF.GenerationSoftware,KiCad,Pcbnew,6.0.2+dfsg-1*%
%TF.CreationDate,2022-08-03T16:07:21+02:00*%
%TF.ProjectId,EspStepperV1,45737053-7465-4707-9065-7256312e6b69,rev?*%
%TF.SameCoordinates,Original*%
%TF.FileFunction,Soldermask,Bot*%
%TF.FilePolarity,Negative*%
%FSLAX46Y46*%
G04 Gerber Fmt 4.6, Leading zero omitted, Abs format (unit mm)*
G04 Created by KiCad (PCBNEW 6.0.2+dfsg-1) date 2022-08-03 16:07:21*
%MOMM*%
%LPD*%
G01*
G04 APERTURE LIST*
%ADD10C,1.600000*%
%ADD11R,1.600000X1.600000*%
%ADD12R,2.000000X2.000000*%
%ADD13O,2.000000X1.600000*%
%ADD14C,1.524000*%
%ADD15R,1.524000X1.524000*%
%ADD16O,1.600000X1.600000*%
%ADD17R,1.700000X1.700000*%
%ADD18O,1.700000X1.700000*%
%ADD19R,3.000000X3.000000*%
%ADD20C,3.000000*%
%ADD21C,3.100000*%
%ADD22C,4.700000*%
G04 APERTURE END LIST*
D10*
%TO.C,C1*%
X94500000Y-84355113D03*
D11*
X94500000Y-86355113D03*
%TD*%
D12*
%TO.C,WeMos_D1*%
X47555000Y-75910000D03*
D13*
X47555000Y-78450000D03*
X47555000Y-80990000D03*
X47555000Y-83530000D03*
X47555000Y-86070000D03*
X47555000Y-88610000D03*
X47555000Y-91150000D03*
X47555000Y-93690000D03*
X70415000Y-93690000D03*
X70415000Y-91150000D03*
X70415000Y-88610000D03*
X70415000Y-86070000D03*
X70415000Y-83530000D03*
X70415000Y-80990000D03*
X70415000Y-78450000D03*
X70415000Y-75910000D03*
%TD*%
D14*
%TO.C,MT1584*%
X77729000Y-94996000D03*
D15*
X77729000Y-108204000D03*
D14*
X96271000Y-94996000D03*
D15*
X96271000Y-108204000D03*
X96271000Y-97536000D03*
X77729000Y-97536000D03*
D14*
X77729000Y-105664000D03*
X96271000Y-105664000D03*
%TD*%
D16*
%TO.C,A4988*%
X78210000Y-77340000D03*
X80750000Y-77340000D03*
X83290000Y-77340000D03*
X85830000Y-77340000D03*
X88370000Y-77340000D03*
X90910000Y-77340000D03*
X93450000Y-77340000D03*
X95990000Y-77340000D03*
X95990000Y-90040000D03*
X93450000Y-90040000D03*
X90910000Y-90040000D03*
X88370000Y-90040000D03*
X85830000Y-90040000D03*
X83290000Y-90040000D03*
X80750000Y-90040000D03*
D11*
X78210000Y-90040000D03*
%TD*%
D17*
%TO.C,J4*%
X74000000Y-81325000D03*
D18*
X74000000Y-78785000D03*
X74000000Y-76245000D03*
%TD*%
D17*
%TO.C,J7*%
X62900000Y-107800000D03*
D18*
X60360000Y-107800000D03*
%TD*%
D17*
%TO.C,J1*%
X63000000Y-104100000D03*
D18*
X60460000Y-104100000D03*
X57920000Y-104100000D03*
X55380000Y-104100000D03*
X52840000Y-104100000D03*
X50300000Y-104100000D03*
X47760000Y-104100000D03*
%TD*%
D19*
%TO.C,J5*%
X72790000Y-106250000D03*
D20*
X67710000Y-106250000D03*
%TD*%
D17*
%TO.C,J6*%
X50400000Y-107800000D03*
D18*
X47860000Y-107800000D03*
%TD*%
D17*
%TO.C,J3*%
X74000000Y-93500000D03*
D18*
X74000000Y-90960000D03*
X74000000Y-88420000D03*
X74000000Y-85880000D03*
%TD*%
%TO.C,J2*%
X54060000Y-107800000D03*
D17*
X56600000Y-107800000D03*
%TD*%
D21*
%TO.C,H3*%
X55000000Y-77800000D03*
D22*
X55000000Y-77800000D03*
%TD*%
%TO.C,H2*%
X87700000Y-106700000D03*
D21*
X87700000Y-106700000D03*
%TD*%
D22*
%TO.C,H1*%
X82600000Y-82200000D03*
D21*
X82600000Y-82200000D03*
%TD*%
M02*
