M48
; DRILL file {KiCad 6.0.2+dfsg-1} date Wed 03 Aug 2022 03:59:33 PM CEST
; FORMAT={-:-/ absolute / metric / decimal}
; #@! TF.CreationDate,2022-08-03T15:59:33+02:00
; #@! TF.GenerationSoftware,Kicad,Pcbnew,6.0.2+dfsg-1
; #@! TF.FileFunction,Plated,1,2,PTH
FMAT,2
METRIC
; #@! TA.AperFunction,Plated,PTH,ComponentDrill
T1C0.700
; #@! TA.AperFunction,Plated,PTH,ComponentDrill
T2C0.800
; #@! TA.AperFunction,Plated,PTH,ComponentDrill
T3C1.000
; #@! TA.AperFunction,Plated,PTH,ComponentDrill
T4C1.520
; #@! TA.AperFunction,Plated,PTH,ComponentDrill
T5C2.700
%
G90
G05
T1
X77.729Y-94.996
X77.729Y-97.536
X77.729Y-105.664
X77.729Y-108.204
X96.271Y-94.996
X96.271Y-97.536
X96.271Y-105.664
X96.271Y-108.204
T2
X78.21Y-77.34
X78.21Y-90.04
X80.75Y-77.34
X80.75Y-90.04
X83.29Y-77.34
X83.29Y-90.04
X85.83Y-77.34
X85.83Y-90.04
X88.37Y-77.34
X88.37Y-90.04
X90.91Y-77.34
X90.91Y-90.04
X93.45Y-77.34
X93.45Y-90.04
X94.5Y-84.355
X94.5Y-86.355
X95.99Y-77.34
X95.99Y-90.04
T3
X47.555Y-75.91
X47.555Y-78.45
X47.555Y-80.99
X47.555Y-83.53
X47.555Y-86.07
X47.555Y-88.61
X47.555Y-91.15
X47.555Y-93.69
X47.76Y-104.1
X47.86Y-107.8
X50.3Y-104.1
X50.4Y-107.8
X52.84Y-104.1
X54.06Y-107.8
X55.38Y-104.1
X56.6Y-107.8
X57.92Y-104.1
X60.36Y-107.8
X60.46Y-104.1
X62.9Y-107.8
X63.0Y-104.1
X70.415Y-75.91
X70.415Y-78.45
X70.415Y-80.99
X70.415Y-83.53
X70.415Y-86.07
X70.415Y-88.61
X70.415Y-91.15
X70.415Y-93.69
X74.0Y-76.245
X74.0Y-78.785
X74.0Y-81.325
X74.0Y-85.88
X74.0Y-88.42
X74.0Y-90.96
X74.0Y-93.5
T4
X67.71Y-106.25
X72.79Y-106.25
T5
X55.0Y-77.8
X82.6Y-82.2
X87.7Y-106.7
T0
M30
