%TF.GenerationSoftware,KiCad,Pcbnew,6.0.2+dfsg-1*%
%TF.CreationDate,2022-08-03T16:07:20+02:00*%
%TF.ProjectId,EspStepperV1,45737053-7465-4707-9065-7256312e6b69,rev?*%
%TF.SameCoordinates,Original*%
%TF.FileFunction,Copper,L2,Bot*%
%TF.FilePolarity,Positive*%
%FSLAX46Y46*%
G04 Gerber Fmt 4.6, Leading zero omitted, Abs format (unit mm)*
G04 Created by KiCad (PCBNEW 6.0.2+dfsg-1) date 2022-08-03 16:07:20*
%MOMM*%
%LPD*%
G01*
G04 APERTURE LIST*
%TA.AperFunction,ComponentPad*%
%ADD10C,1.600000*%
%TD*%
%TA.AperFunction,ComponentPad*%
%ADD11R,1.600000X1.600000*%
%TD*%
%TA.AperFunction,ComponentPad*%
%ADD12R,2.000000X2.000000*%
%TD*%
%TA.AperFunction,ComponentPad*%
%ADD13O,2.000000X1.600000*%
%TD*%
%TA.AperFunction,ComponentPad*%
%ADD14C,1.524000*%
%TD*%
%TA.AperFunction,ComponentPad*%
%ADD15R,1.524000X1.524000*%
%TD*%
%TA.AperFunction,ComponentPad*%
%ADD16O,1.600000X1.600000*%
%TD*%
%TA.AperFunction,ComponentPad*%
%ADD17R,1.700000X1.700000*%
%TD*%
%TA.AperFunction,ComponentPad*%
%ADD18O,1.700000X1.700000*%
%TD*%
%TA.AperFunction,ComponentPad*%
%ADD19R,3.000000X3.000000*%
%TD*%
%TA.AperFunction,ComponentPad*%
%ADD20C,3.000000*%
%TD*%
%TA.AperFunction,ComponentPad*%
%ADD21C,3.100000*%
%TD*%
%TA.AperFunction,ConnectorPad*%
%ADD22C,4.700000*%
%TD*%
%TA.AperFunction,Conductor*%
%ADD23C,0.800000*%
%TD*%
%TA.AperFunction,Conductor*%
%ADD24C,0.200000*%
%TD*%
G04 APERTURE END LIST*
D10*
%TO.P,C1,2*%
%TO.N,GND*%
X94500000Y-84355113D03*
D11*
%TO.P,C1,1*%
%TO.N,+12V*%
X94500000Y-86355113D03*
%TD*%
D12*
%TO.P,WeMos_D1,1,~{RST}*%
%TO.N,RST*%
X47555000Y-75910000D03*
D13*
%TO.P,WeMos_D1,2,A0*%
%TO.N,A0*%
X47555000Y-78450000D03*
%TO.P,WeMos_D1,3,D0*%
%TO.N,D0*%
X47555000Y-80990000D03*
%TO.P,WeMos_D1,4,SCK/D5*%
%TO.N,D5*%
X47555000Y-83530000D03*
%TO.P,WeMos_D1,5,MISO/D6*%
%TO.N,D6*%
X47555000Y-86070000D03*
%TO.P,WeMos_D1,6,MOSI/D7*%
%TO.N,D7*%
X47555000Y-88610000D03*
%TO.P,WeMos_D1,7,CS/D8*%
%TO.N,D8*%
X47555000Y-91150000D03*
%TO.P,WeMos_D1,8,3V3*%
%TO.N,+3V3*%
X47555000Y-93690000D03*
%TO.P,WeMos_D1,9,5V*%
%TO.N,+5V*%
X70415000Y-93690000D03*
%TO.P,WeMos_D1,10,GND*%
%TO.N,GND*%
X70415000Y-91150000D03*
%TO.P,WeMos_D1,11,D4*%
%TO.N,D4*%
X70415000Y-88610000D03*
%TO.P,WeMos_D1,12,D3*%
%TO.N,D3*%
X70415000Y-86070000D03*
%TO.P,WeMos_D1,13,SDA/D2*%
%TO.N,D2*%
X70415000Y-83530000D03*
%TO.P,WeMos_D1,14,SCL/D1*%
%TO.N,D1*%
X70415000Y-80990000D03*
%TO.P,WeMos_D1,15,RX*%
%TO.N,RX*%
X70415000Y-78450000D03*
%TO.P,WeMos_D1,16,TX*%
%TO.N,TX*%
X70415000Y-75910000D03*
%TD*%
D14*
%TO.P,MT1584,2,GND*%
%TO.N,GND*%
X77729000Y-94996000D03*
D15*
%TO.P,MT1584,1,Vin*%
%TO.N,+12V*%
X77729000Y-108204000D03*
D14*
%TO.P,MT1584,3,GND*%
%TO.N,GND*%
X96271000Y-94996000D03*
D15*
%TO.P,MT1584,4,Vout*%
%TO.N,+5V*%
X96271000Y-108204000D03*
%TO.P,MT1584,3,GND*%
%TO.N,GND*%
X96271000Y-97536000D03*
%TO.P,MT1584,2,GND*%
X77729000Y-97536000D03*
D14*
%TO.P,MT1584,1,Vin*%
%TO.N,+12V*%
X77729000Y-105664000D03*
%TO.P,MT1584,4,Vout*%
%TO.N,+5V*%
X96271000Y-105664000D03*
%TD*%
D16*
%TO.P,A4988,16,DIR*%
%TO.N,D4*%
X78210000Y-77340000D03*
%TO.P,A4988,15,STEP*%
%TO.N,D3*%
X80750000Y-77340000D03*
%TO.P,A4988,14,~{SLEEP}*%
%TO.N,D2*%
X83290000Y-77340000D03*
%TO.P,A4988,13,~{RESET}*%
%TO.N,+5V*%
X85830000Y-77340000D03*
%TO.P,A4988,12,MS3*%
%TO.N,MS3*%
X88370000Y-77340000D03*
%TO.P,A4988,11,MS2*%
%TO.N,MS2*%
X90910000Y-77340000D03*
%TO.P,A4988,10,MS1*%
%TO.N,MS1*%
X93450000Y-77340000D03*
%TO.P,A4988,9,~{ENABLE}*%
%TO.N,GND*%
X95990000Y-77340000D03*
%TO.P,A4988,8,VMOT*%
%TO.N,+12V*%
X95990000Y-90040000D03*
%TO.P,A4988,7,GND*%
%TO.N,GND*%
X93450000Y-90040000D03*
%TO.P,A4988,6,2B*%
%TO.N,2B*%
X90910000Y-90040000D03*
%TO.P,A4988,5,2A*%
%TO.N,2A*%
X88370000Y-90040000D03*
%TO.P,A4988,4,1A*%
%TO.N,1A*%
X85830000Y-90040000D03*
%TO.P,A4988,3,1B*%
%TO.N,1B*%
X83290000Y-90040000D03*
%TO.P,A4988,2,VDD*%
%TO.N,+5V*%
X80750000Y-90040000D03*
D11*
%TO.P,A4988,1,GND*%
%TO.N,GND*%
X78210000Y-90040000D03*
%TD*%
D17*
%TO.P,J4,1,Pin_1*%
%TO.N,D1*%
X74000000Y-81325000D03*
D18*
%TO.P,J4,2,Pin_2*%
%TO.N,RX*%
X74000000Y-78785000D03*
%TO.P,J4,3,Pin_3*%
%TO.N,TX*%
X74000000Y-76245000D03*
%TD*%
D17*
%TO.P,J7,1,Pin_1*%
%TO.N,GND*%
X62900000Y-107800000D03*
D18*
%TO.P,J7,2,Pin_2*%
%TO.N,+5V*%
X60360000Y-107800000D03*
%TD*%
D17*
%TO.P,J1,1,Pin_1*%
%TO.N,RST*%
X63000000Y-104100000D03*
D18*
%TO.P,J1,2,Pin_2*%
%TO.N,A0*%
X60460000Y-104100000D03*
%TO.P,J1,3,Pin_3*%
%TO.N,D0*%
X57920000Y-104100000D03*
%TO.P,J1,4,Pin_4*%
%TO.N,D5*%
X55380000Y-104100000D03*
%TO.P,J1,5,Pin_5*%
%TO.N,D6*%
X52840000Y-104100000D03*
%TO.P,J1,6,Pin_6*%
%TO.N,D7*%
X50300000Y-104100000D03*
%TO.P,J1,7,Pin_7*%
%TO.N,D8*%
X47760000Y-104100000D03*
%TD*%
D19*
%TO.P,J5,1,Pin_1*%
%TO.N,GND*%
X72790000Y-106250000D03*
D20*
%TO.P,J5,2,Pin_2*%
%TO.N,+12V*%
X67710000Y-106250000D03*
%TD*%
D17*
%TO.P,J6,1,Pin_1*%
%TO.N,GND*%
X50400000Y-107800000D03*
D18*
%TO.P,J6,2,Pin_2*%
%TO.N,+12V*%
X47860000Y-107800000D03*
%TD*%
D17*
%TO.P,J3,1,Pin_1*%
%TO.N,1A*%
X74000000Y-93500000D03*
D18*
%TO.P,J3,2,Pin_2*%
%TO.N,1B*%
X74000000Y-90960000D03*
%TO.P,J3,3,Pin_3*%
%TO.N,2A*%
X74000000Y-88420000D03*
%TO.P,J3,4,Pin_4*%
%TO.N,2B*%
X74000000Y-85880000D03*
%TD*%
%TO.P,J2,2,Pin_2*%
%TO.N,+3V3*%
X54060000Y-107800000D03*
D17*
%TO.P,J2,1,Pin_1*%
%TO.N,GND*%
X56600000Y-107800000D03*
%TD*%
D21*
%TO.P,H3,1,1*%
%TO.N,GND*%
X55000000Y-77800000D03*
D22*
X55000000Y-77800000D03*
%TD*%
%TO.P,H2,1,1*%
%TO.N,GND*%
X87700000Y-106700000D03*
D21*
X87700000Y-106700000D03*
%TD*%
D22*
%TO.P,H1,1,1*%
%TO.N,GND*%
X82600000Y-82200000D03*
D21*
X82600000Y-82200000D03*
%TD*%
D23*
%TO.N,+5V*%
X70415000Y-93690000D02*
X71674511Y-94949511D01*
X71674511Y-94949511D02*
X75840489Y-94949511D01*
X75840489Y-94949511D02*
X80750000Y-90040000D01*
X96271000Y-105664000D02*
X96271000Y-108204000D01*
X80750000Y-90040000D02*
X96271000Y-105561000D01*
X96271000Y-105561000D02*
X96271000Y-105664000D01*
D24*
%TO.N,D3*%
X70415000Y-86070000D02*
X71615000Y-86070000D01*
X71615000Y-86070000D02*
X76900000Y-80785000D01*
X76900000Y-80785000D02*
X76900000Y-77095056D01*
X76900000Y-77095056D02*
X78195056Y-75800000D01*
X78195056Y-75800000D02*
X79210000Y-75800000D01*
X79210000Y-75800000D02*
X80750000Y-77340000D01*
D23*
%TO.N,+5V*%
X85830000Y-77340000D02*
X85830000Y-84960000D01*
X85830000Y-84960000D02*
X80750000Y-90040000D01*
D24*
%TO.N,D4*%
X78210000Y-77340000D02*
X78210000Y-80044345D01*
X78210000Y-80044345D02*
X70415000Y-87839345D01*
X70415000Y-87839345D02*
X70415000Y-88610000D01*
D23*
%TO.N,+12V*%
X47860000Y-107800000D02*
X47860000Y-106597919D01*
X47860000Y-106597919D02*
X48207919Y-106250000D01*
X48207919Y-106250000D02*
X67710000Y-106250000D01*
%TD*%
%TA.AperFunction,Conductor*%
%TO.N,GND*%
G36*
X54226501Y-74828002D02*
G01*
X54272994Y-74881658D01*
X54283098Y-74951932D01*
X54253604Y-75016512D01*
X54199194Y-75053207D01*
X53921727Y-75148205D01*
X53915033Y-75150937D01*
X53624090Y-75289710D01*
X53617735Y-75293204D01*
X53344694Y-75464482D01*
X53338766Y-75468694D01*
X53180316Y-75595636D01*
X53171846Y-75607762D01*
X53178241Y-75619030D01*
X54252191Y-76692981D01*
X54987190Y-77427980D01*
X55001131Y-77435592D01*
X55002966Y-77435461D01*
X55009580Y-77431210D01*
X55747809Y-76692981D01*
X56820675Y-75620114D01*
X56828067Y-75606577D01*
X56821280Y-75596877D01*
X56733637Y-75522022D01*
X56727849Y-75517629D01*
X56460314Y-75337852D01*
X56454091Y-75334172D01*
X56167643Y-75186325D01*
X56161032Y-75183382D01*
X55859507Y-75069445D01*
X55852581Y-75067274D01*
X55808508Y-75056204D01*
X55747312Y-75020209D01*
X55715291Y-74956844D01*
X55722611Y-74886226D01*
X55766949Y-74830775D01*
X55839203Y-74808000D01*
X69162312Y-74808000D01*
X69230433Y-74828002D01*
X69276926Y-74881658D01*
X69287030Y-74951932D01*
X69257536Y-75016512D01*
X69251407Y-75023095D01*
X69208802Y-75065700D01*
X69205645Y-75070208D01*
X69205643Y-75070211D01*
X69178064Y-75109598D01*
X69077477Y-75253251D01*
X69075154Y-75258233D01*
X69075151Y-75258238D01*
X69021841Y-75372563D01*
X68980716Y-75460757D01*
X68979294Y-75466065D01*
X68979293Y-75466067D01*
X68938016Y-75620114D01*
X68921457Y-75681913D01*
X68901502Y-75910000D01*
X68921457Y-76138087D01*
X68922881Y-76143400D01*
X68922881Y-76143402D01*
X68973053Y-76330643D01*
X68980716Y-76359243D01*
X68983039Y-76364224D01*
X68983039Y-76364225D01*
X69075151Y-76561762D01*
X69075154Y-76561767D01*
X69077477Y-76566749D01*
X69080634Y-76571257D01*
X69205486Y-76749564D01*
X69208802Y-76754300D01*
X69370700Y-76916198D01*
X69375208Y-76919355D01*
X69375211Y-76919357D01*
X69435442Y-76961531D01*
X69558251Y-77047523D01*
X69563233Y-77049846D01*
X69563238Y-77049849D01*
X69597457Y-77065805D01*
X69650742Y-77112722D01*
X69670203Y-77180999D01*
X69649661Y-77248959D01*
X69597457Y-77294195D01*
X69563238Y-77310151D01*
X69563233Y-77310154D01*
X69558251Y-77312477D01*
X69497195Y-77355229D01*
X69375211Y-77440643D01*
X69375208Y-77440645D01*
X69370700Y-77443802D01*
X69208802Y-77605700D01*
X69205645Y-77610208D01*
X69205643Y-77610211D01*
X69178064Y-77649598D01*
X69077477Y-77793251D01*
X69075154Y-77798233D01*
X69075151Y-77798238D01*
X68985027Y-77991511D01*
X68980716Y-78000757D01*
X68979294Y-78006065D01*
X68979293Y-78006067D01*
X68930491Y-78188197D01*
X68921457Y-78221913D01*
X68901502Y-78450000D01*
X68921457Y-78678087D01*
X68980716Y-78899243D01*
X68983039Y-78904224D01*
X68983039Y-78904225D01*
X69075151Y-79101762D01*
X69075154Y-79101767D01*
X69077477Y-79106749D01*
X69080634Y-79111257D01*
X69198671Y-79279831D01*
X69208802Y-79294300D01*
X69370700Y-79456198D01*
X69375208Y-79459355D01*
X69375211Y-79459357D01*
X69420798Y-79491277D01*
X69558251Y-79587523D01*
X69563233Y-79589846D01*
X69563238Y-79589849D01*
X69597457Y-79605805D01*
X69650742Y-79652722D01*
X69670203Y-79720999D01*
X69649661Y-79788959D01*
X69597457Y-79834195D01*
X69563238Y-79850151D01*
X69563233Y-79850154D01*
X69558251Y-79852477D01*
X69465205Y-79917629D01*
X69375211Y-79980643D01*
X69375208Y-79980645D01*
X69370700Y-79983802D01*
X69208802Y-80145700D01*
X69077477Y-80333251D01*
X69075154Y-80338233D01*
X69075151Y-80338238D01*
X68995683Y-80508660D01*
X68980716Y-80540757D01*
X68921457Y-80761913D01*
X68901502Y-80990000D01*
X68921457Y-81218087D01*
X68922881Y-81223400D01*
X68922881Y-81223402D01*
X68937998Y-81279817D01*
X68980716Y-81439243D01*
X68983039Y-81444224D01*
X68983039Y-81444225D01*
X69075151Y-81641762D01*
X69075154Y-81641767D01*
X69077477Y-81646749D01*
X69080634Y-81651257D01*
X69204377Y-81827980D01*
X69208802Y-81834300D01*
X69370700Y-81996198D01*
X69375208Y-81999355D01*
X69375211Y-81999357D01*
X69453389Y-82054098D01*
X69558251Y-82127523D01*
X69563233Y-82129846D01*
X69563238Y-82129849D01*
X69597457Y-82145805D01*
X69650742Y-82192722D01*
X69670203Y-82260999D01*
X69649661Y-82328959D01*
X69597457Y-82374195D01*
X69563238Y-82390151D01*
X69563233Y-82390154D01*
X69558251Y-82392477D01*
X69453389Y-82465902D01*
X69375211Y-82520643D01*
X69375208Y-82520645D01*
X69370700Y-82523802D01*
X69208802Y-82685700D01*
X69077477Y-82873251D01*
X69075154Y-82878233D01*
X69075151Y-82878238D01*
X68983039Y-83075775D01*
X68980716Y-83080757D01*
X68979294Y-83086065D01*
X68979293Y-83086067D01*
X68970234Y-83119877D01*
X68921457Y-83301913D01*
X68901502Y-83530000D01*
X68921457Y-83758087D01*
X68922881Y-83763400D01*
X68922881Y-83763402D01*
X68974860Y-83957387D01*
X68980716Y-83979243D01*
X68983039Y-83984224D01*
X68983039Y-83984225D01*
X69075151Y-84181762D01*
X69075154Y-84181767D01*
X69077477Y-84186749D01*
X69080634Y-84191257D01*
X69199201Y-84360588D01*
X69208802Y-84374300D01*
X69370700Y-84536198D01*
X69375208Y-84539355D01*
X69375211Y-84539357D01*
X69417650Y-84569073D01*
X69558251Y-84667523D01*
X69563233Y-84669846D01*
X69563238Y-84669849D01*
X69597457Y-84685805D01*
X69650742Y-84732722D01*
X69670203Y-84800999D01*
X69649661Y-84868959D01*
X69597457Y-84914195D01*
X69563238Y-84930151D01*
X69563233Y-84930154D01*
X69558251Y-84932477D01*
X69455649Y-85004320D01*
X69375211Y-85060643D01*
X69375208Y-85060645D01*
X69370700Y-85063802D01*
X69208802Y-85225700D01*
X69205645Y-85230208D01*
X69205643Y-85230211D01*
X69165620Y-85287370D01*
X69077477Y-85413251D01*
X69075154Y-85418233D01*
X69075151Y-85418238D01*
X68983039Y-85615775D01*
X68980716Y-85620757D01*
X68979294Y-85626065D01*
X68979293Y-85626067D01*
X68972253Y-85652342D01*
X68921457Y-85841913D01*
X68901502Y-86070000D01*
X68921457Y-86298087D01*
X68922881Y-86303400D01*
X68922881Y-86303402D01*
X68943057Y-86378697D01*
X68980716Y-86519243D01*
X68983039Y-86524224D01*
X68983039Y-86524225D01*
X69075151Y-86721762D01*
X69075154Y-86721767D01*
X69077477Y-86726749D01*
X69208802Y-86914300D01*
X69370700Y-87076198D01*
X69375208Y-87079355D01*
X69375211Y-87079357D01*
X69453389Y-87134098D01*
X69558251Y-87207523D01*
X69563233Y-87209846D01*
X69563238Y-87209849D01*
X69597457Y-87225805D01*
X69650742Y-87272722D01*
X69670203Y-87340999D01*
X69649661Y-87408959D01*
X69597457Y-87454195D01*
X69563238Y-87470151D01*
X69563233Y-87470154D01*
X69558251Y-87472477D01*
X69460957Y-87540603D01*
X69375211Y-87600643D01*
X69375208Y-87600645D01*
X69370700Y-87603802D01*
X69208802Y-87765700D01*
X69077477Y-87953251D01*
X69075154Y-87958233D01*
X69075151Y-87958238D01*
X68983039Y-88155775D01*
X68980716Y-88160757D01*
X68921457Y-88381913D01*
X68901502Y-88610000D01*
X68921457Y-88838087D01*
X68922881Y-88843400D01*
X68922881Y-88843402D01*
X68973053Y-89030643D01*
X68980716Y-89059243D01*
X68983039Y-89064224D01*
X68983039Y-89064225D01*
X69075151Y-89261762D01*
X69075154Y-89261767D01*
X69077477Y-89266749D01*
X69080634Y-89271257D01*
X69162721Y-89388489D01*
X69208802Y-89454300D01*
X69370700Y-89616198D01*
X69375208Y-89619355D01*
X69375211Y-89619357D01*
X69453389Y-89674098D01*
X69558251Y-89747523D01*
X69563233Y-89749846D01*
X69563238Y-89749849D01*
X69598049Y-89766081D01*
X69651334Y-89812998D01*
X69670795Y-89881275D01*
X69650253Y-89949235D01*
X69598049Y-89994471D01*
X69563489Y-90010586D01*
X69553993Y-90016069D01*
X69375533Y-90141028D01*
X69367125Y-90148084D01*
X69213084Y-90302125D01*
X69206028Y-90310533D01*
X69081069Y-90488993D01*
X69075586Y-90498489D01*
X68983510Y-90695947D01*
X68979764Y-90706239D01*
X68933606Y-90878503D01*
X68933942Y-90892599D01*
X68941884Y-90896000D01*
X71882967Y-90896000D01*
X71896498Y-90892027D01*
X71897727Y-90883478D01*
X71850236Y-90706239D01*
X71846490Y-90695947D01*
X71754414Y-90498489D01*
X71748931Y-90488993D01*
X71623972Y-90310533D01*
X71616916Y-90302125D01*
X71462875Y-90148084D01*
X71454467Y-90141028D01*
X71276007Y-90016069D01*
X71266511Y-90010586D01*
X71231951Y-89994471D01*
X71178666Y-89947554D01*
X71159205Y-89879277D01*
X71179747Y-89811317D01*
X71231951Y-89766081D01*
X71266762Y-89749849D01*
X71266767Y-89749846D01*
X71271749Y-89747523D01*
X71376611Y-89674098D01*
X71454789Y-89619357D01*
X71454792Y-89619355D01*
X71459300Y-89616198D01*
X71621198Y-89454300D01*
X71667280Y-89388489D01*
X71749366Y-89271257D01*
X71752523Y-89266749D01*
X71754846Y-89261767D01*
X71754849Y-89261762D01*
X71846961Y-89064225D01*
X71846961Y-89064224D01*
X71849284Y-89059243D01*
X71856948Y-89030643D01*
X71907119Y-88843402D01*
X71907119Y-88843400D01*
X71908543Y-88838087D01*
X71928498Y-88610000D01*
X71908543Y-88381913D01*
X71849284Y-88160757D01*
X71846961Y-88155775D01*
X71754849Y-87958238D01*
X71754846Y-87958233D01*
X71752523Y-87953251D01*
X71621198Y-87765700D01*
X71574291Y-87718793D01*
X71540265Y-87656481D01*
X71545330Y-87585666D01*
X71574291Y-87540603D01*
X72608320Y-86506574D01*
X72670632Y-86472548D01*
X72741447Y-86477613D01*
X72798283Y-86520160D01*
X72804848Y-86529835D01*
X72897287Y-86680683D01*
X72897291Y-86680688D01*
X72899987Y-86685088D01*
X73046250Y-86853938D01*
X73218126Y-86996632D01*
X73288595Y-87037811D01*
X73291445Y-87039476D01*
X73340169Y-87091114D01*
X73353240Y-87160897D01*
X73326509Y-87226669D01*
X73286055Y-87260027D01*
X73273607Y-87266507D01*
X73269474Y-87269610D01*
X73269471Y-87269612D01*
X73099100Y-87397530D01*
X73094965Y-87400635D01*
X73076605Y-87419848D01*
X72965921Y-87535672D01*
X72940629Y-87562138D01*
X72937715Y-87566410D01*
X72937714Y-87566411D01*
X72871659Y-87663244D01*
X72814743Y-87746680D01*
X72720688Y-87949305D01*
X72660989Y-88164570D01*
X72637251Y-88386695D01*
X72637548Y-88391848D01*
X72637548Y-88391851D01*
X72643011Y-88486590D01*
X72650110Y-88609715D01*
X72651247Y-88614761D01*
X72651248Y-88614767D01*
X72668501Y-88691323D01*
X72699222Y-88827639D01*
X72783266Y-89034616D01*
X72834019Y-89117438D01*
X72896487Y-89219376D01*
X72899987Y-89225088D01*
X73046250Y-89393938D01*
X73218126Y-89536632D01*
X73288595Y-89577811D01*
X73291445Y-89579476D01*
X73340169Y-89631114D01*
X73353240Y-89700897D01*
X73326509Y-89766669D01*
X73286055Y-89800027D01*
X73273607Y-89806507D01*
X73269474Y-89809610D01*
X73269471Y-89809612D01*
X73128154Y-89915716D01*
X73094965Y-89940635D01*
X73091393Y-89944373D01*
X72965921Y-90075672D01*
X72940629Y-90102138D01*
X72814743Y-90286680D01*
X72799003Y-90320590D01*
X72723182Y-90483933D01*
X72720688Y-90489305D01*
X72660989Y-90704570D01*
X72637251Y-90926695D01*
X72637548Y-90931848D01*
X72637548Y-90931851D01*
X72645978Y-91078054D01*
X72650110Y-91149715D01*
X72651247Y-91154761D01*
X72651248Y-91154767D01*
X72671119Y-91242939D01*
X72699222Y-91367639D01*
X72783266Y-91574616D01*
X72899987Y-91765088D01*
X73046250Y-91933938D01*
X73050230Y-91937242D01*
X73054981Y-91941187D01*
X73094616Y-92000090D01*
X73096113Y-92071071D01*
X73058997Y-92131593D01*
X73018724Y-92156112D01*
X72903295Y-92199385D01*
X72786739Y-92286739D01*
X72699385Y-92403295D01*
X72648255Y-92539684D01*
X72641500Y-92601866D01*
X72641500Y-93915011D01*
X72621498Y-93983132D01*
X72567842Y-94029625D01*
X72515500Y-94041011D01*
X72103014Y-94041011D01*
X72034893Y-94021009D01*
X72013919Y-94004106D01*
X71951647Y-93941834D01*
X71917621Y-93879522D01*
X71915221Y-93841757D01*
X71928019Y-93695475D01*
X71928498Y-93690000D01*
X71908543Y-93461913D01*
X71849284Y-93240757D01*
X71846961Y-93235775D01*
X71754849Y-93038238D01*
X71754846Y-93038233D01*
X71752523Y-93033251D01*
X71621198Y-92845700D01*
X71459300Y-92683802D01*
X71454792Y-92680645D01*
X71454789Y-92680643D01*
X71376611Y-92625902D01*
X71271749Y-92552477D01*
X71266767Y-92550154D01*
X71266762Y-92550151D01*
X71231951Y-92533919D01*
X71178666Y-92487002D01*
X71159205Y-92418725D01*
X71179747Y-92350765D01*
X71231951Y-92305529D01*
X71266511Y-92289414D01*
X71276007Y-92283931D01*
X71454467Y-92158972D01*
X71462875Y-92151916D01*
X71616916Y-91997875D01*
X71623972Y-91989467D01*
X71748931Y-91811007D01*
X71754414Y-91801511D01*
X71846490Y-91604053D01*
X71850236Y-91593761D01*
X71896394Y-91421497D01*
X71896058Y-91407401D01*
X71888116Y-91404000D01*
X68947033Y-91404000D01*
X68933502Y-91407973D01*
X68932273Y-91416522D01*
X68979764Y-91593761D01*
X68983510Y-91604053D01*
X69075586Y-91801511D01*
X69081069Y-91811007D01*
X69206028Y-91989467D01*
X69213084Y-91997875D01*
X69367125Y-92151916D01*
X69375533Y-92158972D01*
X69553993Y-92283931D01*
X69563489Y-92289414D01*
X69598049Y-92305529D01*
X69651334Y-92352446D01*
X69670795Y-92420723D01*
X69650253Y-92488683D01*
X69598049Y-92533919D01*
X69563238Y-92550151D01*
X69563233Y-92550154D01*
X69558251Y-92552477D01*
X69453389Y-92625902D01*
X69375211Y-92680643D01*
X69375208Y-92680645D01*
X69370700Y-92683802D01*
X69208802Y-92845700D01*
X69077477Y-93033251D01*
X69075154Y-93038233D01*
X69075151Y-93038238D01*
X68983039Y-93235775D01*
X68980716Y-93240757D01*
X68921457Y-93461913D01*
X68901502Y-93690000D01*
X68921457Y-93918087D01*
X68922881Y-93923400D01*
X68922881Y-93923402D01*
X68954395Y-94041011D01*
X68980716Y-94139243D01*
X68983039Y-94144224D01*
X68983039Y-94144225D01*
X69075151Y-94341762D01*
X69075154Y-94341767D01*
X69077477Y-94346749D01*
X69208802Y-94534300D01*
X69370700Y-94696198D01*
X69375208Y-94699355D01*
X69375211Y-94699357D01*
X69453389Y-94754098D01*
X69558251Y-94827523D01*
X69563233Y-94829846D01*
X69563238Y-94829849D01*
X69746057Y-94915098D01*
X69765757Y-94924284D01*
X69771065Y-94925706D01*
X69771067Y-94925707D01*
X69981598Y-94982119D01*
X69981600Y-94982119D01*
X69986913Y-94983543D01*
X70086480Y-94992254D01*
X70155149Y-94998262D01*
X70155156Y-94998262D01*
X70157873Y-94998500D01*
X70386497Y-94998500D01*
X70454618Y-95018502D01*
X70475592Y-95035405D01*
X70974530Y-95534343D01*
X70987371Y-95549376D01*
X70995645Y-95560764D01*
X71000554Y-95565184D01*
X71046470Y-95606527D01*
X71051255Y-95611068D01*
X71065770Y-95625583D01*
X71072874Y-95631336D01*
X71081727Y-95638505D01*
X71086742Y-95642789D01*
X71132656Y-95684130D01*
X71132661Y-95684134D01*
X71137567Y-95688551D01*
X71143283Y-95691851D01*
X71143287Y-95691854D01*
X71149748Y-95695584D01*
X71166044Y-95706784D01*
X71176981Y-95715640D01*
X71182859Y-95718635D01*
X71182862Y-95718637D01*
X71237937Y-95746699D01*
X71243734Y-95749847D01*
X71297232Y-95780734D01*
X71302955Y-95784038D01*
X71316337Y-95788386D01*
X71334596Y-95795949D01*
X71347141Y-95802341D01*
X71353511Y-95804048D01*
X71353514Y-95804049D01*
X71392585Y-95814518D01*
X71413223Y-95820048D01*
X71419536Y-95821918D01*
X71484583Y-95843053D01*
X71498586Y-95844525D01*
X71518015Y-95848126D01*
X71531608Y-95851768D01*
X71538205Y-95852114D01*
X71538207Y-95852114D01*
X71599895Y-95855347D01*
X71606469Y-95855864D01*
X71623627Y-95857667D01*
X71623629Y-95857667D01*
X71626901Y-95858011D01*
X71647437Y-95858011D01*
X71654031Y-95858184D01*
X71715729Y-95861418D01*
X71715734Y-95861418D01*
X71722321Y-95861763D01*
X71728837Y-95860731D01*
X71728838Y-95860731D01*
X71736218Y-95859562D01*
X71755928Y-95858011D01*
X75759072Y-95858011D01*
X75778781Y-95859562D01*
X75792679Y-95861763D01*
X75799266Y-95861418D01*
X75799271Y-95861418D01*
X75860969Y-95858184D01*
X75867563Y-95858011D01*
X75888099Y-95858011D01*
X75891371Y-95857667D01*
X75891373Y-95857667D01*
X75908531Y-95855864D01*
X75915105Y-95855347D01*
X75976797Y-95852114D01*
X75976801Y-95852113D01*
X75983392Y-95851768D01*
X75989773Y-95850058D01*
X75989775Y-95850058D01*
X75996980Y-95848128D01*
X76016414Y-95844526D01*
X76023843Y-95843745D01*
X76023852Y-95843743D01*
X76030417Y-95843053D01*
X76095486Y-95821911D01*
X76101788Y-95820044D01*
X76167859Y-95802340D01*
X76180397Y-95795951D01*
X76198663Y-95788386D01*
X76205761Y-95786080D01*
X76205763Y-95786079D01*
X76212045Y-95784038D01*
X76271274Y-95749842D01*
X76277068Y-95746696D01*
X76338019Y-95715640D01*
X76348956Y-95706784D01*
X76365252Y-95695584D01*
X76371713Y-95691854D01*
X76371717Y-95691851D01*
X76377433Y-95688551D01*
X76382339Y-95684134D01*
X76382344Y-95684130D01*
X76428258Y-95642789D01*
X76433273Y-95638505D01*
X76446660Y-95627664D01*
X76446666Y-95627659D01*
X76447963Y-95626609D01*
X76447965Y-95626608D01*
X76449229Y-95625584D01*
X76449472Y-95625884D01*
X76511687Y-95596016D01*
X76582141Y-95604771D01*
X76635221Y-95648098D01*
X76658794Y-95681765D01*
X76669271Y-95690140D01*
X76682718Y-95683072D01*
X77368658Y-94997132D01*
X78093408Y-94997132D01*
X78093539Y-94998965D01*
X78097790Y-95005580D01*
X78776003Y-95683793D01*
X78787777Y-95690223D01*
X78799793Y-95680926D01*
X78829897Y-95637932D01*
X78835377Y-95628441D01*
X78924645Y-95437007D01*
X78928391Y-95426715D01*
X78983059Y-95222691D01*
X78984962Y-95211896D01*
X79003372Y-95001475D01*
X79003372Y-94990525D01*
X78984962Y-94780104D01*
X78983059Y-94769309D01*
X78928391Y-94565285D01*
X78924645Y-94554993D01*
X78835377Y-94363559D01*
X78829897Y-94354068D01*
X78799206Y-94310235D01*
X78788729Y-94301860D01*
X78775282Y-94308928D01*
X78101022Y-94983188D01*
X78093408Y-94997132D01*
X77368658Y-94997132D01*
X78416793Y-93948997D01*
X78423223Y-93937223D01*
X78413928Y-93925209D01*
X78381467Y-93902480D01*
X78337138Y-93847023D01*
X78329829Y-93776404D01*
X78364642Y-93710171D01*
X80660905Y-91413908D01*
X80723217Y-91379882D01*
X80794032Y-91384947D01*
X80839095Y-91413908D01*
X94961626Y-105536439D01*
X94995652Y-105598751D01*
X94998051Y-105636517D01*
X94996126Y-105658516D01*
X94996126Y-105658525D01*
X94995647Y-105664000D01*
X95015022Y-105885463D01*
X95043500Y-105991742D01*
X95065315Y-106073156D01*
X95072560Y-106100196D01*
X95074882Y-106105177D01*
X95074883Y-106105178D01*
X95164186Y-106296689D01*
X95164189Y-106296694D01*
X95166512Y-106301676D01*
X95169668Y-106306183D01*
X95169669Y-106306185D01*
X95273882Y-106455016D01*
X95294023Y-106483781D01*
X95325595Y-106515353D01*
X95359621Y-106577665D01*
X95362500Y-106604448D01*
X95362500Y-106866492D01*
X95342498Y-106934613D01*
X95288842Y-106981106D01*
X95280732Y-106984473D01*
X95270699Y-106988234D01*
X95270696Y-106988236D01*
X95262295Y-106991385D01*
X95255116Y-106996765D01*
X95255113Y-106996767D01*
X95169433Y-107060981D01*
X95145739Y-107078739D01*
X95058385Y-107195295D01*
X95007255Y-107331684D01*
X95000500Y-107393866D01*
X95000500Y-109014134D01*
X95007255Y-109076316D01*
X95058385Y-109212705D01*
X95145739Y-109329261D01*
X95262295Y-109416615D01*
X95398684Y-109467745D01*
X95460866Y-109474500D01*
X97081134Y-109474500D01*
X97143316Y-109467745D01*
X97279705Y-109416615D01*
X97390436Y-109333627D01*
X97456941Y-109308779D01*
X97526324Y-109323832D01*
X97576554Y-109374006D01*
X97592000Y-109434453D01*
X97592000Y-109666000D01*
X97571998Y-109734121D01*
X97518342Y-109780614D01*
X97466000Y-109792000D01*
X88067042Y-109792000D01*
X87998921Y-109771998D01*
X87952428Y-109718342D01*
X87942324Y-109648068D01*
X87971818Y-109583488D01*
X88031544Y-109545104D01*
X88051656Y-109541509D01*
X88051588Y-109540970D01*
X88062387Y-109539606D01*
X88379319Y-109480866D01*
X88386349Y-109479139D01*
X88694445Y-109384356D01*
X88701222Y-109381836D01*
X88996389Y-109252267D01*
X89002829Y-109248986D01*
X89281143Y-109086352D01*
X89287176Y-109082343D01*
X89521689Y-108906266D01*
X89530143Y-108894939D01*
X89523398Y-108882609D01*
X87712810Y-107072020D01*
X87698869Y-107064408D01*
X87697034Y-107064539D01*
X87690420Y-107068790D01*
X85877663Y-108881548D01*
X85870049Y-108895492D01*
X85870067Y-108895745D01*
X85875981Y-108904488D01*
X85895672Y-108922405D01*
X85901304Y-108926966D01*
X86163062Y-109115058D01*
X86169192Y-109118948D01*
X86450831Y-109275706D01*
X86457351Y-109278858D01*
X86755151Y-109402211D01*
X86762002Y-109404597D01*
X87071989Y-109492899D01*
X87079078Y-109494484D01*
X87367140Y-109541656D01*
X87431133Y-109572404D01*
X87468344Y-109632868D01*
X87466958Y-109703851D01*
X87427416Y-109762817D01*
X87362272Y-109791044D01*
X87346778Y-109792000D01*
X46734000Y-109792000D01*
X46665879Y-109771998D01*
X46619386Y-109718342D01*
X46608000Y-109666000D01*
X46608000Y-108767530D01*
X46628002Y-108699409D01*
X46681658Y-108652916D01*
X46751932Y-108642812D01*
X46816512Y-108672306D01*
X46829237Y-108685033D01*
X46900699Y-108767530D01*
X46906250Y-108773938D01*
X47078126Y-108916632D01*
X47271000Y-109029338D01*
X47479692Y-109109030D01*
X47484760Y-109110061D01*
X47484763Y-109110062D01*
X47592017Y-109131883D01*
X47698597Y-109153567D01*
X47703772Y-109153757D01*
X47703774Y-109153757D01*
X47916673Y-109161564D01*
X47916677Y-109161564D01*
X47921837Y-109161753D01*
X47926957Y-109161097D01*
X47926959Y-109161097D01*
X48138288Y-109134025D01*
X48138289Y-109134025D01*
X48143416Y-109133368D01*
X48204446Y-109115058D01*
X48352429Y-109070661D01*
X48352434Y-109070659D01*
X48357384Y-109069174D01*
X48557994Y-108970896D01*
X48739860Y-108841173D01*
X48807331Y-108773938D01*
X48848479Y-108732933D01*
X48910851Y-108699017D01*
X48981658Y-108704205D01*
X49038419Y-108746851D01*
X49055401Y-108777954D01*
X49096676Y-108888054D01*
X49105214Y-108903649D01*
X49181715Y-109005724D01*
X49194276Y-109018285D01*
X49296351Y-109094786D01*
X49311946Y-109103324D01*
X49432394Y-109148478D01*
X49447649Y-109152105D01*
X49498514Y-109157631D01*
X49505328Y-109158000D01*
X50127885Y-109158000D01*
X50143124Y-109153525D01*
X50144329Y-109152135D01*
X50146000Y-109144452D01*
X50146000Y-109139884D01*
X50654000Y-109139884D01*
X50658475Y-109155123D01*
X50659865Y-109156328D01*
X50667548Y-109157999D01*
X51294669Y-109157999D01*
X51301490Y-109157629D01*
X51352352Y-109152105D01*
X51367604Y-109148479D01*
X51488054Y-109103324D01*
X51503649Y-109094786D01*
X51605724Y-109018285D01*
X51618285Y-109005724D01*
X51694786Y-108903649D01*
X51703324Y-108888054D01*
X51748478Y-108767606D01*
X51752105Y-108752351D01*
X51757631Y-108701486D01*
X51758000Y-108694672D01*
X51758000Y-108072115D01*
X51753525Y-108056876D01*
X51752135Y-108055671D01*
X51744452Y-108054000D01*
X50672115Y-108054000D01*
X50656876Y-108058475D01*
X50655671Y-108059865D01*
X50654000Y-108067548D01*
X50654000Y-109139884D01*
X50146000Y-109139884D01*
X50146000Y-107672000D01*
X50166002Y-107603879D01*
X50219658Y-107557386D01*
X50272000Y-107546000D01*
X51739884Y-107546000D01*
X51755123Y-107541525D01*
X51756328Y-107540135D01*
X51757999Y-107532452D01*
X51757999Y-107284500D01*
X51778001Y-107216379D01*
X51831657Y-107169886D01*
X51883999Y-107158500D01*
X52663367Y-107158500D01*
X52731488Y-107178502D01*
X52777981Y-107232158D01*
X52788085Y-107302432D01*
X52782009Y-107326458D01*
X52780688Y-107329305D01*
X52720989Y-107544570D01*
X52697251Y-107766695D01*
X52697548Y-107771848D01*
X52697548Y-107771851D01*
X52705806Y-107915073D01*
X52710110Y-107989715D01*
X52711247Y-107994761D01*
X52711248Y-107994767D01*
X52725606Y-108058475D01*
X52759222Y-108207639D01*
X52780660Y-108260434D01*
X52838903Y-108403870D01*
X52843266Y-108414616D01*
X52959987Y-108605088D01*
X53106250Y-108773938D01*
X53278126Y-108916632D01*
X53471000Y-109029338D01*
X53679692Y-109109030D01*
X53684760Y-109110061D01*
X53684763Y-109110062D01*
X53792017Y-109131883D01*
X53898597Y-109153567D01*
X53903772Y-109153757D01*
X53903774Y-109153757D01*
X54116673Y-109161564D01*
X54116677Y-109161564D01*
X54121837Y-109161753D01*
X54126957Y-109161097D01*
X54126959Y-109161097D01*
X54338288Y-109134025D01*
X54338289Y-109134025D01*
X54343416Y-109133368D01*
X54404446Y-109115058D01*
X54552429Y-109070661D01*
X54552434Y-109070659D01*
X54557384Y-109069174D01*
X54757994Y-108970896D01*
X54939860Y-108841173D01*
X55007331Y-108773938D01*
X55048479Y-108732933D01*
X55110851Y-108699017D01*
X55181658Y-108704205D01*
X55238419Y-108746851D01*
X55255401Y-108777954D01*
X55296676Y-108888054D01*
X55305214Y-108903649D01*
X55381715Y-109005724D01*
X55394276Y-109018285D01*
X55496351Y-109094786D01*
X55511946Y-109103324D01*
X55632394Y-109148478D01*
X55647649Y-109152105D01*
X55698514Y-109157631D01*
X55705328Y-109158000D01*
X56327885Y-109158000D01*
X56343124Y-109153525D01*
X56344329Y-109152135D01*
X56346000Y-109144452D01*
X56346000Y-109139884D01*
X56854000Y-109139884D01*
X56858475Y-109155123D01*
X56859865Y-109156328D01*
X56867548Y-109157999D01*
X57494669Y-109157999D01*
X57501490Y-109157629D01*
X57552352Y-109152105D01*
X57567604Y-109148479D01*
X57688054Y-109103324D01*
X57703649Y-109094786D01*
X57805724Y-109018285D01*
X57818285Y-109005724D01*
X57894786Y-108903649D01*
X57903324Y-108888054D01*
X57948478Y-108767606D01*
X57952105Y-108752351D01*
X57957631Y-108701486D01*
X57958000Y-108694672D01*
X57958000Y-108072115D01*
X57953525Y-108056876D01*
X57952135Y-108055671D01*
X57944452Y-108054000D01*
X56872115Y-108054000D01*
X56856876Y-108058475D01*
X56855671Y-108059865D01*
X56854000Y-108067548D01*
X56854000Y-109139884D01*
X56346000Y-109139884D01*
X56346000Y-107672000D01*
X56366002Y-107603879D01*
X56419658Y-107557386D01*
X56472000Y-107546000D01*
X57939884Y-107546000D01*
X57955123Y-107541525D01*
X57956328Y-107540135D01*
X57957999Y-107532452D01*
X57957999Y-107284500D01*
X57978001Y-107216379D01*
X58031657Y-107169886D01*
X58083999Y-107158500D01*
X58963367Y-107158500D01*
X59031488Y-107178502D01*
X59077981Y-107232158D01*
X59088085Y-107302432D01*
X59082009Y-107326458D01*
X59080688Y-107329305D01*
X59020989Y-107544570D01*
X58997251Y-107766695D01*
X58997548Y-107771848D01*
X58997548Y-107771851D01*
X59005806Y-107915073D01*
X59010110Y-107989715D01*
X59011247Y-107994761D01*
X59011248Y-107994767D01*
X59025606Y-108058475D01*
X59059222Y-108207639D01*
X59080660Y-108260434D01*
X59138903Y-108403870D01*
X59143266Y-108414616D01*
X59259987Y-108605088D01*
X59406250Y-108773938D01*
X59578126Y-108916632D01*
X59771000Y-109029338D01*
X59979692Y-109109030D01*
X59984760Y-109110061D01*
X59984763Y-109110062D01*
X60092017Y-109131883D01*
X60198597Y-109153567D01*
X60203772Y-109153757D01*
X60203774Y-109153757D01*
X60416673Y-109161564D01*
X60416677Y-109161564D01*
X60421837Y-109161753D01*
X60426957Y-109161097D01*
X60426959Y-109161097D01*
X60638288Y-109134025D01*
X60638289Y-109134025D01*
X60643416Y-109133368D01*
X60704446Y-109115058D01*
X60852429Y-109070661D01*
X60852434Y-109070659D01*
X60857384Y-109069174D01*
X61057994Y-108970896D01*
X61239860Y-108841173D01*
X61307331Y-108773938D01*
X61348479Y-108732933D01*
X61410851Y-108699017D01*
X61481658Y-108704205D01*
X61538419Y-108746851D01*
X61555401Y-108777954D01*
X61596676Y-108888054D01*
X61605214Y-108903649D01*
X61681715Y-109005724D01*
X61694276Y-109018285D01*
X61796351Y-109094786D01*
X61811946Y-109103324D01*
X61932394Y-109148478D01*
X61947649Y-109152105D01*
X61998514Y-109157631D01*
X62005328Y-109158000D01*
X62627885Y-109158000D01*
X62643124Y-109153525D01*
X62644329Y-109152135D01*
X62646000Y-109144452D01*
X62646000Y-109139884D01*
X63154000Y-109139884D01*
X63158475Y-109155123D01*
X63159865Y-109156328D01*
X63167548Y-109157999D01*
X63794669Y-109157999D01*
X63801490Y-109157629D01*
X63852352Y-109152105D01*
X63867604Y-109148479D01*
X63988054Y-109103324D01*
X64003649Y-109094786D01*
X64105724Y-109018285D01*
X64118285Y-109005724D01*
X64194786Y-108903649D01*
X64203324Y-108888054D01*
X64248478Y-108767606D01*
X64252105Y-108752351D01*
X64257631Y-108701486D01*
X64258000Y-108694672D01*
X64258000Y-108072115D01*
X64253525Y-108056876D01*
X64252135Y-108055671D01*
X64244452Y-108054000D01*
X63172115Y-108054000D01*
X63156876Y-108058475D01*
X63155671Y-108059865D01*
X63154000Y-108067548D01*
X63154000Y-109139884D01*
X62646000Y-109139884D01*
X62646000Y-107672000D01*
X62666002Y-107603879D01*
X62719658Y-107557386D01*
X62772000Y-107546000D01*
X64239884Y-107546000D01*
X64255123Y-107541525D01*
X64256328Y-107540135D01*
X64257999Y-107532452D01*
X64257999Y-107284500D01*
X64278001Y-107216379D01*
X64331657Y-107169886D01*
X64383999Y-107158500D01*
X65841000Y-107158500D01*
X65909121Y-107178502D01*
X65953565Y-107227885D01*
X65977160Y-107274799D01*
X65979586Y-107278328D01*
X65979589Y-107278334D01*
X66056658Y-107390469D01*
X66132274Y-107500490D01*
X66316582Y-107703043D01*
X66526675Y-107878707D01*
X66530316Y-107880991D01*
X66755024Y-108021951D01*
X66755028Y-108021953D01*
X66758664Y-108024234D01*
X66824588Y-108054000D01*
X67004345Y-108135164D01*
X67004349Y-108135166D01*
X67008257Y-108136930D01*
X67012377Y-108138150D01*
X67012376Y-108138150D01*
X67266723Y-108213491D01*
X67266727Y-108213492D01*
X67270836Y-108214709D01*
X67275070Y-108215357D01*
X67275075Y-108215358D01*
X67537298Y-108255483D01*
X67537300Y-108255483D01*
X67541540Y-108256132D01*
X67680912Y-108258322D01*
X67811071Y-108260367D01*
X67811077Y-108260367D01*
X67815362Y-108260434D01*
X68087235Y-108227534D01*
X68352127Y-108158041D01*
X68356087Y-108156401D01*
X68356092Y-108156399D01*
X68559570Y-108072115D01*
X68605136Y-108053241D01*
X68841582Y-107915073D01*
X68995139Y-107794669D01*
X70782001Y-107794669D01*
X70782371Y-107801490D01*
X70787895Y-107852352D01*
X70791521Y-107867604D01*
X70836676Y-107988054D01*
X70845214Y-108003649D01*
X70921715Y-108105724D01*
X70934276Y-108118285D01*
X71036351Y-108194786D01*
X71051946Y-108203324D01*
X71172394Y-108248478D01*
X71187649Y-108252105D01*
X71238514Y-108257631D01*
X71245328Y-108258000D01*
X72517885Y-108258000D01*
X72533124Y-108253525D01*
X72534329Y-108252135D01*
X72536000Y-108244452D01*
X72536000Y-108239884D01*
X73044000Y-108239884D01*
X73048475Y-108255123D01*
X73049865Y-108256328D01*
X73057548Y-108257999D01*
X74334669Y-108257999D01*
X74341490Y-108257629D01*
X74392352Y-108252105D01*
X74407604Y-108248479D01*
X74528054Y-108203324D01*
X74543649Y-108194786D01*
X74645724Y-108118285D01*
X74658285Y-108105724D01*
X74734786Y-108003649D01*
X74743324Y-107988054D01*
X74788478Y-107867606D01*
X74792105Y-107852351D01*
X74797631Y-107801486D01*
X74798000Y-107794672D01*
X74798000Y-106522115D01*
X74793525Y-106506876D01*
X74792135Y-106505671D01*
X74784452Y-106504000D01*
X73062115Y-106504000D01*
X73046876Y-106508475D01*
X73045671Y-106509865D01*
X73044000Y-106517548D01*
X73044000Y-108239884D01*
X72536000Y-108239884D01*
X72536000Y-106522115D01*
X72531525Y-106506876D01*
X72530135Y-106505671D01*
X72522452Y-106504000D01*
X70800116Y-106504000D01*
X70784877Y-106508475D01*
X70783672Y-106509865D01*
X70782001Y-106517548D01*
X70782001Y-107794669D01*
X68995139Y-107794669D01*
X69057089Y-107746094D01*
X69098809Y-107703043D01*
X69210247Y-107588047D01*
X69247669Y-107549431D01*
X69250202Y-107545983D01*
X69250206Y-107545978D01*
X69407257Y-107332178D01*
X69409795Y-107328723D01*
X69437154Y-107278334D01*
X69538418Y-107091830D01*
X69538419Y-107091828D01*
X69540468Y-107088054D01*
X69595721Y-106941831D01*
X69635751Y-106835895D01*
X69635752Y-106835891D01*
X69637269Y-106831877D01*
X69698407Y-106564933D01*
X69699539Y-106552258D01*
X69722531Y-106294627D01*
X69722531Y-106294625D01*
X69722751Y-106292161D01*
X69723193Y-106250000D01*
X69721582Y-106226363D01*
X69704859Y-105981055D01*
X69704858Y-105981049D01*
X69704642Y-105977885D01*
X70782000Y-105977885D01*
X70786475Y-105993124D01*
X70787865Y-105994329D01*
X70795548Y-105996000D01*
X72517885Y-105996000D01*
X72533124Y-105991525D01*
X72534329Y-105990135D01*
X72536000Y-105982452D01*
X72536000Y-105977885D01*
X73044000Y-105977885D01*
X73048475Y-105993124D01*
X73049865Y-105994329D01*
X73057548Y-105996000D01*
X74779884Y-105996000D01*
X74795123Y-105991525D01*
X74796328Y-105990135D01*
X74797999Y-105982452D01*
X74797999Y-105664000D01*
X76453647Y-105664000D01*
X76473022Y-105885463D01*
X76501500Y-105991742D01*
X76523315Y-106073156D01*
X76530560Y-106100196D01*
X76532882Y-106105177D01*
X76532883Y-106105178D01*
X76622186Y-106296689D01*
X76622189Y-106296694D01*
X76624512Y-106301676D01*
X76627668Y-106306183D01*
X76627669Y-106306185D01*
X76731882Y-106455016D01*
X76752023Y-106483781D01*
X76909219Y-106640977D01*
X76913727Y-106644134D01*
X76913730Y-106644136D01*
X76949837Y-106669418D01*
X76989277Y-106697034D01*
X76999635Y-106704287D01*
X77043963Y-106759744D01*
X77051272Y-106830363D01*
X77019241Y-106893724D01*
X76958040Y-106929709D01*
X76927364Y-106933500D01*
X76918866Y-106933500D01*
X76856684Y-106940255D01*
X76720295Y-106991385D01*
X76603739Y-107078739D01*
X76516385Y-107195295D01*
X76465255Y-107331684D01*
X76458500Y-107393866D01*
X76458500Y-109014134D01*
X76465255Y-109076316D01*
X76516385Y-109212705D01*
X76603739Y-109329261D01*
X76720295Y-109416615D01*
X76856684Y-109467745D01*
X76918866Y-109474500D01*
X78539134Y-109474500D01*
X78601316Y-109467745D01*
X78737705Y-109416615D01*
X78854261Y-109329261D01*
X78941615Y-109212705D01*
X78992745Y-109076316D01*
X78999500Y-109014134D01*
X78999500Y-107393866D01*
X78992745Y-107331684D01*
X78941615Y-107195295D01*
X78854261Y-107078739D01*
X78737705Y-106991385D01*
X78601316Y-106940255D01*
X78539134Y-106933500D01*
X78530636Y-106933500D01*
X78462515Y-106913498D01*
X78416022Y-106859842D01*
X78405918Y-106789568D01*
X78435412Y-106724988D01*
X78458365Y-106704287D01*
X78468724Y-106697034D01*
X78508163Y-106669418D01*
X78544270Y-106644136D01*
X78544273Y-106644134D01*
X78548781Y-106640977D01*
X78576050Y-106613708D01*
X84838665Y-106613708D01*
X84847102Y-106935932D01*
X84847708Y-106943148D01*
X84893126Y-107262264D01*
X84894560Y-107269375D01*
X84976356Y-107581164D01*
X84978593Y-107588047D01*
X85095679Y-107888358D01*
X85098699Y-107894956D01*
X85249532Y-108179831D01*
X85253278Y-108186016D01*
X85435856Y-108451668D01*
X85440291Y-108457387D01*
X85495061Y-108520170D01*
X85508233Y-108528573D01*
X85518084Y-108522705D01*
X87327980Y-106712810D01*
X87334357Y-106701131D01*
X88064408Y-106701131D01*
X88064539Y-106702966D01*
X88068790Y-106709580D01*
X89879776Y-108520565D01*
X89893130Y-108527857D01*
X89903102Y-108520803D01*
X89996013Y-108409681D01*
X90000329Y-108403870D01*
X90177308Y-108134447D01*
X90180922Y-108128185D01*
X90325759Y-107840208D01*
X90328632Y-107833570D01*
X90439407Y-107530864D01*
X90441503Y-107523923D01*
X90516751Y-107210495D01*
X90518035Y-107203356D01*
X90556858Y-106882538D01*
X90557282Y-106876968D01*
X90562755Y-106702797D01*
X90562682Y-106697204D01*
X90544079Y-106374573D01*
X90543247Y-106367383D01*
X90487828Y-106049840D01*
X90486173Y-106042785D01*
X90394627Y-105733733D01*
X90392170Y-105726908D01*
X90265706Y-105430417D01*
X90262485Y-105423928D01*
X90102773Y-105143924D01*
X90098841Y-105137869D01*
X89908003Y-104878075D01*
X89906760Y-104876573D01*
X89894037Y-104869007D01*
X89893431Y-104869028D01*
X89884951Y-104874260D01*
X88072020Y-106687190D01*
X88064408Y-106701131D01*
X87334357Y-106701131D01*
X87335592Y-106698869D01*
X87335461Y-106697034D01*
X87331210Y-106690420D01*
X85519218Y-104878429D01*
X85506425Y-104871443D01*
X85495671Y-104879308D01*
X85351419Y-105063280D01*
X85347284Y-105069229D01*
X85178856Y-105344078D01*
X85175445Y-105350439D01*
X85039724Y-105642826D01*
X85037056Y-105649564D01*
X84935845Y-105955596D01*
X84933969Y-105962600D01*
X84868604Y-106278237D01*
X84867547Y-106285398D01*
X84838893Y-106606455D01*
X84838665Y-106613708D01*
X78576050Y-106613708D01*
X78705977Y-106483781D01*
X78726119Y-106455016D01*
X78830331Y-106306185D01*
X78830332Y-106306183D01*
X78833488Y-106301676D01*
X78835811Y-106296694D01*
X78835814Y-106296689D01*
X78925117Y-106105178D01*
X78925118Y-106105177D01*
X78927440Y-106100196D01*
X78934686Y-106073156D01*
X78956500Y-105991742D01*
X78984978Y-105885463D01*
X79004353Y-105664000D01*
X78984978Y-105442537D01*
X78932969Y-105248439D01*
X78928863Y-105233114D01*
X78928862Y-105233112D01*
X78927440Y-105227804D01*
X78925117Y-105222822D01*
X78835814Y-105031311D01*
X78835811Y-105031306D01*
X78833488Y-105026324D01*
X78816128Y-105001531D01*
X78709136Y-104848730D01*
X78709134Y-104848727D01*
X78705977Y-104844219D01*
X78548781Y-104687023D01*
X78544273Y-104683866D01*
X78544270Y-104683864D01*
X78468505Y-104630813D01*
X78366677Y-104559512D01*
X78361695Y-104557189D01*
X78361690Y-104557186D01*
X78255699Y-104507762D01*
X85871846Y-104507762D01*
X85878241Y-104519030D01*
X87687190Y-106327980D01*
X87701131Y-106335592D01*
X87702966Y-106335461D01*
X87709580Y-106331210D01*
X89520675Y-104520114D01*
X89528067Y-104506577D01*
X89521279Y-104496875D01*
X89433637Y-104422022D01*
X89427849Y-104417629D01*
X89160314Y-104237852D01*
X89154091Y-104234172D01*
X88867643Y-104086325D01*
X88861032Y-104083382D01*
X88559507Y-103969445D01*
X88552581Y-103967274D01*
X88239957Y-103888749D01*
X88232850Y-103887393D01*
X87913273Y-103845319D01*
X87906031Y-103844788D01*
X87583759Y-103839725D01*
X87576497Y-103840029D01*
X87255761Y-103872043D01*
X87248613Y-103873175D01*
X86933670Y-103941844D01*
X86926692Y-103943792D01*
X86621727Y-104048205D01*
X86615033Y-104050937D01*
X86324090Y-104189710D01*
X86317735Y-104193204D01*
X86044694Y-104364482D01*
X86038766Y-104368694D01*
X85880316Y-104495636D01*
X85871846Y-104507762D01*
X78255699Y-104507762D01*
X78170178Y-104467883D01*
X78170177Y-104467882D01*
X78165196Y-104465560D01*
X78159888Y-104464138D01*
X78159886Y-104464137D01*
X78094051Y-104446497D01*
X77950463Y-104408022D01*
X77729000Y-104388647D01*
X77507537Y-104408022D01*
X77363949Y-104446497D01*
X77298114Y-104464137D01*
X77298112Y-104464138D01*
X77292804Y-104465560D01*
X77287823Y-104467882D01*
X77287822Y-104467883D01*
X77096311Y-104557186D01*
X77096306Y-104557189D01*
X77091324Y-104559512D01*
X77086817Y-104562668D01*
X77086815Y-104562669D01*
X76913730Y-104683864D01*
X76913727Y-104683866D01*
X76909219Y-104687023D01*
X76752023Y-104844219D01*
X76748866Y-104848727D01*
X76748864Y-104848730D01*
X76641872Y-105001531D01*
X76624512Y-105026324D01*
X76622189Y-105031306D01*
X76622186Y-105031311D01*
X76532883Y-105222822D01*
X76530560Y-105227804D01*
X76529138Y-105233112D01*
X76529137Y-105233114D01*
X76525031Y-105248439D01*
X76473022Y-105442537D01*
X76453647Y-105664000D01*
X74797999Y-105664000D01*
X74797999Y-104705331D01*
X74797629Y-104698510D01*
X74792105Y-104647648D01*
X74788479Y-104632396D01*
X74743324Y-104511946D01*
X74734786Y-104496351D01*
X74658285Y-104394276D01*
X74645724Y-104381715D01*
X74543649Y-104305214D01*
X74528054Y-104296676D01*
X74407606Y-104251522D01*
X74392351Y-104247895D01*
X74341486Y-104242369D01*
X74334672Y-104242000D01*
X73062115Y-104242000D01*
X73046876Y-104246475D01*
X73045671Y-104247865D01*
X73044000Y-104255548D01*
X73044000Y-105977885D01*
X72536000Y-105977885D01*
X72536000Y-104260116D01*
X72531525Y-104244877D01*
X72530135Y-104243672D01*
X72522452Y-104242001D01*
X71245331Y-104242001D01*
X71238510Y-104242371D01*
X71187648Y-104247895D01*
X71172396Y-104251521D01*
X71051946Y-104296676D01*
X71036351Y-104305214D01*
X70934276Y-104381715D01*
X70921715Y-104394276D01*
X70845214Y-104496351D01*
X70836676Y-104511946D01*
X70791522Y-104632394D01*
X70787895Y-104647649D01*
X70782369Y-104698514D01*
X70782000Y-104705328D01*
X70782000Y-105977885D01*
X69704642Y-105977885D01*
X69704567Y-105976778D01*
X69703646Y-105972328D01*
X69649901Y-105712809D01*
X69649032Y-105708612D01*
X69557617Y-105450465D01*
X69463358Y-105267842D01*
X69433978Y-105210919D01*
X69433978Y-105210918D01*
X69432013Y-105207112D01*
X69425306Y-105197568D01*
X69343222Y-105080775D01*
X69274545Y-104983057D01*
X69141908Y-104840322D01*
X69091046Y-104785588D01*
X69091043Y-104785585D01*
X69088125Y-104782445D01*
X69084810Y-104779731D01*
X69084806Y-104779728D01*
X68879523Y-104611706D01*
X68876205Y-104608990D01*
X68642704Y-104465901D01*
X68638686Y-104464137D01*
X68395873Y-104357549D01*
X68395869Y-104357548D01*
X68391945Y-104355825D01*
X68128566Y-104280800D01*
X68124324Y-104280196D01*
X68124318Y-104280195D01*
X67897366Y-104247895D01*
X67857443Y-104242213D01*
X67713589Y-104241460D01*
X67587877Y-104240802D01*
X67587871Y-104240802D01*
X67583591Y-104240780D01*
X67579347Y-104241339D01*
X67579343Y-104241339D01*
X67471416Y-104255548D01*
X67312078Y-104276525D01*
X67307938Y-104277658D01*
X67307936Y-104277658D01*
X67238418Y-104296676D01*
X67047928Y-104348788D01*
X67043980Y-104350472D01*
X66799982Y-104454546D01*
X66799978Y-104454548D01*
X66796030Y-104456232D01*
X66728996Y-104496351D01*
X66564725Y-104594664D01*
X66564721Y-104594667D01*
X66561043Y-104596868D01*
X66347318Y-104768094D01*
X66297821Y-104820253D01*
X66188063Y-104935914D01*
X66158808Y-104966742D01*
X65999002Y-105189136D01*
X65996998Y-105192921D01*
X65953826Y-105274459D01*
X65904273Y-105325302D01*
X65842471Y-105341500D01*
X64428132Y-105341500D01*
X64360011Y-105321498D01*
X64313518Y-105267842D01*
X64303414Y-105197568D01*
X64310150Y-105171270D01*
X64321433Y-105141173D01*
X64351745Y-105060316D01*
X64358500Y-104998134D01*
X64358500Y-103201866D01*
X64351745Y-103139684D01*
X64300615Y-103003295D01*
X64213261Y-102886739D01*
X64096705Y-102799385D01*
X63960316Y-102748255D01*
X63898134Y-102741500D01*
X62101866Y-102741500D01*
X62039684Y-102748255D01*
X61903295Y-102799385D01*
X61786739Y-102886739D01*
X61699385Y-103003295D01*
X61696233Y-103011703D01*
X61654919Y-103121907D01*
X61612277Y-103178671D01*
X61545716Y-103203371D01*
X61476367Y-103188163D01*
X61443743Y-103162476D01*
X61393151Y-103106875D01*
X61393142Y-103106866D01*
X61389670Y-103103051D01*
X61385619Y-103099852D01*
X61385615Y-103099848D01*
X61218414Y-102967800D01*
X61218410Y-102967798D01*
X61214359Y-102964598D01*
X61018789Y-102856638D01*
X61013920Y-102854914D01*
X61013916Y-102854912D01*
X60813087Y-102783795D01*
X60813083Y-102783794D01*
X60808212Y-102782069D01*
X60803119Y-102781162D01*
X60803116Y-102781161D01*
X60593373Y-102743800D01*
X60593367Y-102743799D01*
X60588284Y-102742894D01*
X60514452Y-102741992D01*
X60370081Y-102740228D01*
X60370079Y-102740228D01*
X60364911Y-102740165D01*
X60144091Y-102773955D01*
X59931756Y-102843357D01*
X59733607Y-102946507D01*
X59729474Y-102949610D01*
X59729471Y-102949612D01*
X59559100Y-103077530D01*
X59554965Y-103080635D01*
X59525094Y-103111893D01*
X59461280Y-103178671D01*
X59400629Y-103242138D01*
X59293201Y-103399621D01*
X59238293Y-103444621D01*
X59167768Y-103452792D01*
X59104021Y-103421538D01*
X59083324Y-103397054D01*
X59002822Y-103272617D01*
X59002820Y-103272614D01*
X59000014Y-103268277D01*
X58849670Y-103103051D01*
X58845619Y-103099852D01*
X58845615Y-103099848D01*
X58678414Y-102967800D01*
X58678410Y-102967798D01*
X58674359Y-102964598D01*
X58478789Y-102856638D01*
X58473920Y-102854914D01*
X58473916Y-102854912D01*
X58273087Y-102783795D01*
X58273083Y-102783794D01*
X58268212Y-102782069D01*
X58263119Y-102781162D01*
X58263116Y-102781161D01*
X58053373Y-102743800D01*
X58053367Y-102743799D01*
X58048284Y-102742894D01*
X57974452Y-102741992D01*
X57830081Y-102740228D01*
X57830079Y-102740228D01*
X57824911Y-102740165D01*
X57604091Y-102773955D01*
X57391756Y-102843357D01*
X57193607Y-102946507D01*
X57189474Y-102949610D01*
X57189471Y-102949612D01*
X57019100Y-103077530D01*
X57014965Y-103080635D01*
X56985094Y-103111893D01*
X56921280Y-103178671D01*
X56860629Y-103242138D01*
X56753201Y-103399621D01*
X56698293Y-103444621D01*
X56627768Y-103452792D01*
X56564021Y-103421538D01*
X56543324Y-103397054D01*
X56462822Y-103272617D01*
X56462820Y-103272614D01*
X56460014Y-103268277D01*
X56309670Y-103103051D01*
X56305619Y-103099852D01*
X56305615Y-103099848D01*
X56138414Y-102967800D01*
X56138410Y-102967798D01*
X56134359Y-102964598D01*
X55938789Y-102856638D01*
X55933920Y-102854914D01*
X55933916Y-102854912D01*
X55733087Y-102783795D01*
X55733083Y-102783794D01*
X55728212Y-102782069D01*
X55723119Y-102781162D01*
X55723116Y-102781161D01*
X55513373Y-102743800D01*
X55513367Y-102743799D01*
X55508284Y-102742894D01*
X55434452Y-102741992D01*
X55290081Y-102740228D01*
X55290079Y-102740228D01*
X55284911Y-102740165D01*
X55064091Y-102773955D01*
X54851756Y-102843357D01*
X54653607Y-102946507D01*
X54649474Y-102949610D01*
X54649471Y-102949612D01*
X54479100Y-103077530D01*
X54474965Y-103080635D01*
X54445094Y-103111893D01*
X54381280Y-103178671D01*
X54320629Y-103242138D01*
X54213201Y-103399621D01*
X54158293Y-103444621D01*
X54087768Y-103452792D01*
X54024021Y-103421538D01*
X54003324Y-103397054D01*
X53922822Y-103272617D01*
X53922820Y-103272614D01*
X53920014Y-103268277D01*
X53769670Y-103103051D01*
X53765619Y-103099852D01*
X53765615Y-103099848D01*
X53598414Y-102967800D01*
X53598410Y-102967798D01*
X53594359Y-102964598D01*
X53398789Y-102856638D01*
X53393920Y-102854914D01*
X53393916Y-102854912D01*
X53193087Y-102783795D01*
X53193083Y-102783794D01*
X53188212Y-102782069D01*
X53183119Y-102781162D01*
X53183116Y-102781161D01*
X52973373Y-102743800D01*
X52973367Y-102743799D01*
X52968284Y-102742894D01*
X52894452Y-102741992D01*
X52750081Y-102740228D01*
X52750079Y-102740228D01*
X52744911Y-102740165D01*
X52524091Y-102773955D01*
X52311756Y-102843357D01*
X52113607Y-102946507D01*
X52109474Y-102949610D01*
X52109471Y-102949612D01*
X51939100Y-103077530D01*
X51934965Y-103080635D01*
X51905094Y-103111893D01*
X51841280Y-103178671D01*
X51780629Y-103242138D01*
X51673201Y-103399621D01*
X51618293Y-103444621D01*
X51547768Y-103452792D01*
X51484021Y-103421538D01*
X51463324Y-103397054D01*
X51382822Y-103272617D01*
X51382820Y-103272614D01*
X51380014Y-103268277D01*
X51229670Y-103103051D01*
X51225619Y-103099852D01*
X51225615Y-103099848D01*
X51058414Y-102967800D01*
X51058410Y-102967798D01*
X51054359Y-102964598D01*
X50858789Y-102856638D01*
X50853920Y-102854914D01*
X50853916Y-102854912D01*
X50653087Y-102783795D01*
X50653083Y-102783794D01*
X50648212Y-102782069D01*
X50643119Y-102781162D01*
X50643116Y-102781161D01*
X50433373Y-102743800D01*
X50433367Y-102743799D01*
X50428284Y-102742894D01*
X50354452Y-102741992D01*
X50210081Y-102740228D01*
X50210079Y-102740228D01*
X50204911Y-102740165D01*
X49984091Y-102773955D01*
X49771756Y-102843357D01*
X49573607Y-102946507D01*
X49569474Y-102949610D01*
X49569471Y-102949612D01*
X49399100Y-103077530D01*
X49394965Y-103080635D01*
X49365094Y-103111893D01*
X49301280Y-103178671D01*
X49240629Y-103242138D01*
X49133201Y-103399621D01*
X49078293Y-103444621D01*
X49007768Y-103452792D01*
X48944021Y-103421538D01*
X48923324Y-103397054D01*
X48842822Y-103272617D01*
X48842820Y-103272614D01*
X48840014Y-103268277D01*
X48689670Y-103103051D01*
X48685619Y-103099852D01*
X48685615Y-103099848D01*
X48518414Y-102967800D01*
X48518410Y-102967798D01*
X48514359Y-102964598D01*
X48318789Y-102856638D01*
X48313920Y-102854914D01*
X48313916Y-102854912D01*
X48113087Y-102783795D01*
X48113083Y-102783794D01*
X48108212Y-102782069D01*
X48103119Y-102781162D01*
X48103116Y-102781161D01*
X47893373Y-102743800D01*
X47893367Y-102743799D01*
X47888284Y-102742894D01*
X47814452Y-102741992D01*
X47670081Y-102740228D01*
X47670079Y-102740228D01*
X47664911Y-102740165D01*
X47444091Y-102773955D01*
X47231756Y-102843357D01*
X47033607Y-102946507D01*
X47029474Y-102949610D01*
X47029471Y-102949612D01*
X46859100Y-103077530D01*
X46854965Y-103080635D01*
X46851393Y-103084373D01*
X46825094Y-103111893D01*
X46763569Y-103147323D01*
X46692657Y-103143866D01*
X46634871Y-103102620D01*
X46608557Y-103036679D01*
X46608000Y-103024842D01*
X46608000Y-98342669D01*
X76459001Y-98342669D01*
X76459371Y-98349490D01*
X76464895Y-98400352D01*
X76468521Y-98415604D01*
X76513676Y-98536054D01*
X76522214Y-98551649D01*
X76598715Y-98653724D01*
X76611276Y-98666285D01*
X76713351Y-98742786D01*
X76728946Y-98751324D01*
X76849394Y-98796478D01*
X76864649Y-98800105D01*
X76915514Y-98805631D01*
X76922328Y-98806000D01*
X77456885Y-98806000D01*
X77472124Y-98801525D01*
X77473329Y-98800135D01*
X77475000Y-98792452D01*
X77475000Y-98787884D01*
X77983000Y-98787884D01*
X77987475Y-98803123D01*
X77988865Y-98804328D01*
X77996548Y-98805999D01*
X78535669Y-98805999D01*
X78542490Y-98805629D01*
X78593352Y-98800105D01*
X78608604Y-98796479D01*
X78729054Y-98751324D01*
X78744649Y-98742786D01*
X78846724Y-98666285D01*
X78859285Y-98653724D01*
X78935786Y-98551649D01*
X78944324Y-98536054D01*
X78989478Y-98415606D01*
X78993105Y-98400351D01*
X78998631Y-98349486D01*
X78999000Y-98342672D01*
X78999000Y-97808115D01*
X78994525Y-97792876D01*
X78993135Y-97791671D01*
X78985452Y-97790000D01*
X78001115Y-97790000D01*
X77985876Y-97794475D01*
X77984671Y-97795865D01*
X77983000Y-97803548D01*
X77983000Y-98787884D01*
X77475000Y-98787884D01*
X77475000Y-97808115D01*
X77470525Y-97792876D01*
X77469135Y-97791671D01*
X77461452Y-97790000D01*
X76477116Y-97790000D01*
X76461877Y-97794475D01*
X76460672Y-97795865D01*
X76459001Y-97803548D01*
X76459001Y-98342669D01*
X46608000Y-98342669D01*
X46608000Y-97263885D01*
X76459000Y-97263885D01*
X76463475Y-97279124D01*
X76464865Y-97280329D01*
X76472548Y-97282000D01*
X78980884Y-97282000D01*
X78996123Y-97277525D01*
X78997328Y-97276135D01*
X78998999Y-97268452D01*
X78998999Y-96729331D01*
X78998629Y-96722510D01*
X78993105Y-96671648D01*
X78989479Y-96656396D01*
X78944324Y-96535946D01*
X78935786Y-96520351D01*
X78859285Y-96418276D01*
X78846724Y-96405715D01*
X78744649Y-96329214D01*
X78729054Y-96320676D01*
X78608606Y-96275522D01*
X78593351Y-96271895D01*
X78542486Y-96266369D01*
X78535672Y-96266000D01*
X78517085Y-96266000D01*
X78448964Y-96245998D01*
X78402471Y-96192342D01*
X78392367Y-96122068D01*
X78418664Y-96061328D01*
X78423140Y-96055729D01*
X78416071Y-96042281D01*
X77741812Y-95368022D01*
X77727868Y-95360408D01*
X77726035Y-95360539D01*
X77719420Y-95364790D01*
X77041207Y-96043003D01*
X77034777Y-96054778D01*
X77041061Y-96062900D01*
X77066925Y-96129018D01*
X77052938Y-96198623D01*
X77003539Y-96249616D01*
X76941405Y-96266001D01*
X76922331Y-96266001D01*
X76915510Y-96266371D01*
X76864648Y-96271895D01*
X76849396Y-96275521D01*
X76728946Y-96320676D01*
X76713351Y-96329214D01*
X76611276Y-96405715D01*
X76598715Y-96418276D01*
X76522214Y-96520351D01*
X76513676Y-96535946D01*
X76468522Y-96656394D01*
X76464895Y-96671649D01*
X76459369Y-96722514D01*
X76459000Y-96729328D01*
X76459000Y-97263885D01*
X46608000Y-97263885D01*
X46608000Y-94983219D01*
X46628002Y-94915098D01*
X46681658Y-94868605D01*
X46751932Y-94858501D01*
X46787249Y-94869024D01*
X46900770Y-94921959D01*
X46900775Y-94921961D01*
X46905757Y-94924284D01*
X46911065Y-94925706D01*
X46911067Y-94925707D01*
X47121598Y-94982119D01*
X47121600Y-94982119D01*
X47126913Y-94983543D01*
X47226480Y-94992254D01*
X47295149Y-94998262D01*
X47295156Y-94998262D01*
X47297873Y-94998500D01*
X47812127Y-94998500D01*
X47814844Y-94998262D01*
X47814851Y-94998262D01*
X47883520Y-94992254D01*
X47983087Y-94983543D01*
X47988400Y-94982119D01*
X47988402Y-94982119D01*
X48198933Y-94925707D01*
X48198935Y-94925706D01*
X48204243Y-94924284D01*
X48223943Y-94915098D01*
X48406762Y-94829849D01*
X48406767Y-94829846D01*
X48411749Y-94827523D01*
X48516611Y-94754098D01*
X48594789Y-94699357D01*
X48594792Y-94699355D01*
X48599300Y-94696198D01*
X48761198Y-94534300D01*
X48892523Y-94346749D01*
X48894846Y-94341767D01*
X48894849Y-94341762D01*
X48986961Y-94144225D01*
X48986961Y-94144224D01*
X48989284Y-94139243D01*
X49015606Y-94041011D01*
X49047119Y-93923402D01*
X49047119Y-93923400D01*
X49048543Y-93918087D01*
X49068498Y-93690000D01*
X49048543Y-93461913D01*
X48989284Y-93240757D01*
X48986961Y-93235775D01*
X48894849Y-93038238D01*
X48894846Y-93038233D01*
X48892523Y-93033251D01*
X48761198Y-92845700D01*
X48599300Y-92683802D01*
X48594792Y-92680645D01*
X48594789Y-92680643D01*
X48516611Y-92625902D01*
X48411749Y-92552477D01*
X48406767Y-92550154D01*
X48406762Y-92550151D01*
X48372543Y-92534195D01*
X48319258Y-92487278D01*
X48299797Y-92419001D01*
X48320339Y-92351041D01*
X48372543Y-92305805D01*
X48406762Y-92289849D01*
X48406767Y-92289846D01*
X48411749Y-92287523D01*
X48542124Y-92196233D01*
X48594789Y-92159357D01*
X48594792Y-92159355D01*
X48599300Y-92156198D01*
X48761198Y-91994300D01*
X48892523Y-91806749D01*
X48894846Y-91801767D01*
X48894849Y-91801762D01*
X48986961Y-91604225D01*
X48986961Y-91604224D01*
X48989284Y-91599243D01*
X49008386Y-91527956D01*
X49047119Y-91383402D01*
X49047119Y-91383400D01*
X49048543Y-91378087D01*
X49068498Y-91150000D01*
X49048543Y-90921913D01*
X49039509Y-90888197D01*
X48990707Y-90706067D01*
X48990706Y-90706065D01*
X48989284Y-90700757D01*
X48944010Y-90603666D01*
X48894849Y-90498238D01*
X48894846Y-90498233D01*
X48892523Y-90493251D01*
X48761198Y-90305700D01*
X48599300Y-90143802D01*
X48594792Y-90140645D01*
X48594789Y-90140643D01*
X48516611Y-90085902D01*
X48411749Y-90012477D01*
X48406767Y-90010154D01*
X48406762Y-90010151D01*
X48372543Y-89994195D01*
X48319258Y-89947278D01*
X48299797Y-89879001D01*
X48320339Y-89811041D01*
X48372543Y-89765805D01*
X48406762Y-89749849D01*
X48406767Y-89749846D01*
X48411749Y-89747523D01*
X48516611Y-89674098D01*
X48594789Y-89619357D01*
X48594792Y-89619355D01*
X48599300Y-89616198D01*
X48761198Y-89454300D01*
X48807280Y-89388489D01*
X48889366Y-89271257D01*
X48892523Y-89266749D01*
X48894846Y-89261767D01*
X48894849Y-89261762D01*
X48986961Y-89064225D01*
X48986961Y-89064224D01*
X48989284Y-89059243D01*
X48996948Y-89030643D01*
X49047119Y-88843402D01*
X49047119Y-88843400D01*
X49048543Y-88838087D01*
X49068498Y-88610000D01*
X49048543Y-88381913D01*
X48989284Y-88160757D01*
X48986961Y-88155775D01*
X48894849Y-87958238D01*
X48894846Y-87958233D01*
X48892523Y-87953251D01*
X48761198Y-87765700D01*
X48599300Y-87603802D01*
X48594792Y-87600645D01*
X48594789Y-87600643D01*
X48509043Y-87540603D01*
X48411749Y-87472477D01*
X48406767Y-87470154D01*
X48406762Y-87470151D01*
X48372543Y-87454195D01*
X48319258Y-87407278D01*
X48299797Y-87339001D01*
X48320339Y-87271041D01*
X48372543Y-87225805D01*
X48406762Y-87209849D01*
X48406767Y-87209846D01*
X48411749Y-87207523D01*
X48516611Y-87134098D01*
X48594789Y-87079357D01*
X48594792Y-87079355D01*
X48599300Y-87076198D01*
X48761198Y-86914300D01*
X48892523Y-86726749D01*
X48894846Y-86721767D01*
X48894849Y-86721762D01*
X48986961Y-86524225D01*
X48986961Y-86524224D01*
X48989284Y-86519243D01*
X49026944Y-86378697D01*
X49047119Y-86303402D01*
X49047119Y-86303400D01*
X49048543Y-86298087D01*
X49068498Y-86070000D01*
X49048543Y-85841913D01*
X48997747Y-85652342D01*
X48990707Y-85626067D01*
X48990706Y-85626065D01*
X48989284Y-85620757D01*
X48986961Y-85615775D01*
X48894849Y-85418238D01*
X48894846Y-85418233D01*
X48892523Y-85413251D01*
X48804380Y-85287370D01*
X48764357Y-85230211D01*
X48764355Y-85230208D01*
X48761198Y-85225700D01*
X48599300Y-85063802D01*
X48594792Y-85060645D01*
X48594789Y-85060643D01*
X48514351Y-85004320D01*
X48411749Y-84932477D01*
X48406767Y-84930154D01*
X48406762Y-84930151D01*
X48372543Y-84914195D01*
X48319258Y-84867278D01*
X48299797Y-84799001D01*
X48320339Y-84731041D01*
X48372543Y-84685805D01*
X48406762Y-84669849D01*
X48406767Y-84669846D01*
X48411749Y-84667523D01*
X48552350Y-84569073D01*
X48594789Y-84539357D01*
X48594792Y-84539355D01*
X48599300Y-84536198D01*
X48761198Y-84374300D01*
X48770800Y-84360588D01*
X48889366Y-84191257D01*
X48892523Y-84186749D01*
X48894846Y-84181767D01*
X48894849Y-84181762D01*
X48986961Y-83984225D01*
X48986961Y-83984224D01*
X48989284Y-83979243D01*
X48995141Y-83957387D01*
X49047119Y-83763402D01*
X49047119Y-83763400D01*
X49048543Y-83758087D01*
X49068498Y-83530000D01*
X49048543Y-83301913D01*
X48999766Y-83119877D01*
X48990707Y-83086067D01*
X48990706Y-83086065D01*
X48989284Y-83080757D01*
X48986961Y-83075775D01*
X48894849Y-82878238D01*
X48894846Y-82878233D01*
X48892523Y-82873251D01*
X48761198Y-82685700D01*
X48599300Y-82523802D01*
X48594792Y-82520645D01*
X48594789Y-82520643D01*
X48516611Y-82465902D01*
X48411749Y-82392477D01*
X48406767Y-82390154D01*
X48406762Y-82390151D01*
X48372543Y-82374195D01*
X48319258Y-82327278D01*
X48299797Y-82259001D01*
X48320339Y-82191041D01*
X48372543Y-82145805D01*
X48406762Y-82129849D01*
X48406767Y-82129846D01*
X48411749Y-82127523D01*
X48516611Y-82054098D01*
X48594789Y-81999357D01*
X48594792Y-81999355D01*
X48599300Y-81996198D01*
X48761198Y-81834300D01*
X48765624Y-81827980D01*
X48889366Y-81651257D01*
X48892523Y-81646749D01*
X48894846Y-81641767D01*
X48894849Y-81641762D01*
X48986961Y-81444225D01*
X48986961Y-81444224D01*
X48989284Y-81439243D01*
X49032003Y-81279817D01*
X49047119Y-81223402D01*
X49047119Y-81223400D01*
X49048543Y-81218087D01*
X49068498Y-80990000D01*
X49048543Y-80761913D01*
X48989284Y-80540757D01*
X48974317Y-80508660D01*
X48894849Y-80338238D01*
X48894846Y-80338233D01*
X48892523Y-80333251D01*
X48761198Y-80145700D01*
X48610990Y-79995492D01*
X53170049Y-79995492D01*
X53170067Y-79995745D01*
X53175981Y-80004488D01*
X53195672Y-80022405D01*
X53201304Y-80026966D01*
X53463062Y-80215058D01*
X53469192Y-80218948D01*
X53750831Y-80375706D01*
X53757351Y-80378858D01*
X54055151Y-80502211D01*
X54062002Y-80504597D01*
X54371989Y-80592899D01*
X54379078Y-80594484D01*
X54697171Y-80646574D01*
X54704377Y-80647331D01*
X55026352Y-80662515D01*
X55033602Y-80662439D01*
X55355178Y-80640517D01*
X55362387Y-80639606D01*
X55679319Y-80580866D01*
X55686349Y-80579139D01*
X55994445Y-80484356D01*
X56001222Y-80481836D01*
X56296389Y-80352267D01*
X56302829Y-80348986D01*
X56581143Y-80186352D01*
X56587176Y-80182343D01*
X56821689Y-80006266D01*
X56830143Y-79994939D01*
X56823398Y-79982609D01*
X55012810Y-78172020D01*
X54998869Y-78164408D01*
X54997034Y-78164539D01*
X54990420Y-78168790D01*
X53177663Y-79981548D01*
X53170049Y-79995492D01*
X48610990Y-79995492D01*
X48599300Y-79983802D01*
X48594792Y-79980645D01*
X48594789Y-79980643D01*
X48504795Y-79917629D01*
X48411749Y-79852477D01*
X48406767Y-79850154D01*
X48406762Y-79850151D01*
X48372543Y-79834195D01*
X48319258Y-79787278D01*
X48299797Y-79719001D01*
X48320339Y-79651041D01*
X48372543Y-79605805D01*
X48406762Y-79589849D01*
X48406767Y-79589846D01*
X48411749Y-79587523D01*
X48549202Y-79491277D01*
X48594789Y-79459357D01*
X48594792Y-79459355D01*
X48599300Y-79456198D01*
X48761198Y-79294300D01*
X48771330Y-79279831D01*
X48889366Y-79111257D01*
X48892523Y-79106749D01*
X48894846Y-79101767D01*
X48894849Y-79101762D01*
X48986961Y-78904225D01*
X48986961Y-78904224D01*
X48989284Y-78899243D01*
X49048543Y-78678087D01*
X49068498Y-78450000D01*
X49048543Y-78221913D01*
X49039509Y-78188197D01*
X48990707Y-78006067D01*
X48990706Y-78006065D01*
X48989284Y-78000757D01*
X48984973Y-77991511D01*
X48894849Y-77798238D01*
X48894846Y-77798233D01*
X48892523Y-77793251D01*
X48836826Y-77713708D01*
X52138665Y-77713708D01*
X52147102Y-78035932D01*
X52147708Y-78043148D01*
X52193126Y-78362264D01*
X52194560Y-78369375D01*
X52276356Y-78681164D01*
X52278593Y-78688047D01*
X52395679Y-78988358D01*
X52398699Y-78994956D01*
X52549532Y-79279831D01*
X52553278Y-79286016D01*
X52735856Y-79551668D01*
X52740291Y-79557387D01*
X52795061Y-79620170D01*
X52808233Y-79628573D01*
X52818084Y-79622705D01*
X54627980Y-77812810D01*
X54634357Y-77801131D01*
X55364408Y-77801131D01*
X55364539Y-77802966D01*
X55368790Y-77809580D01*
X57179776Y-79620565D01*
X57193130Y-79627857D01*
X57203102Y-79620803D01*
X57296013Y-79509681D01*
X57300329Y-79503870D01*
X57477308Y-79234447D01*
X57480922Y-79228185D01*
X57625759Y-78940208D01*
X57628632Y-78933570D01*
X57739407Y-78630864D01*
X57741503Y-78623923D01*
X57816751Y-78310495D01*
X57818035Y-78303356D01*
X57856858Y-77982538D01*
X57857282Y-77976968D01*
X57862755Y-77802797D01*
X57862682Y-77797204D01*
X57844079Y-77474573D01*
X57843247Y-77467383D01*
X57787828Y-77149840D01*
X57786173Y-77142785D01*
X57694627Y-76833733D01*
X57692170Y-76826908D01*
X57565706Y-76530417D01*
X57562485Y-76523928D01*
X57402773Y-76243924D01*
X57398841Y-76237869D01*
X57208003Y-75978075D01*
X57206760Y-75976573D01*
X57194037Y-75969007D01*
X57193431Y-75969028D01*
X57184951Y-75974260D01*
X55372020Y-77787190D01*
X55364408Y-77801131D01*
X54634357Y-77801131D01*
X54635592Y-77798869D01*
X54635461Y-77797034D01*
X54631210Y-77790420D01*
X52819218Y-75978429D01*
X52806425Y-75971443D01*
X52795671Y-75979308D01*
X52651419Y-76163280D01*
X52647284Y-76169229D01*
X52478856Y-76444078D01*
X52475445Y-76450439D01*
X52339724Y-76742826D01*
X52337056Y-76749564D01*
X52235845Y-77055596D01*
X52233969Y-77062600D01*
X52168604Y-77378237D01*
X52167547Y-77385398D01*
X52138893Y-77706455D01*
X52138665Y-77713708D01*
X48836826Y-77713708D01*
X48791936Y-77649598D01*
X48764357Y-77610211D01*
X48764355Y-77610208D01*
X48761198Y-77605700D01*
X48732365Y-77576867D01*
X48698339Y-77514555D01*
X48703404Y-77443740D01*
X48745951Y-77386904D01*
X48777232Y-77369790D01*
X48793293Y-77363769D01*
X48793296Y-77363767D01*
X48801705Y-77360615D01*
X48918261Y-77273261D01*
X49005615Y-77156705D01*
X49056745Y-77020316D01*
X49063500Y-76958134D01*
X49063500Y-74934000D01*
X49083502Y-74865879D01*
X49137158Y-74819386D01*
X49189500Y-74808000D01*
X54158380Y-74808000D01*
X54226501Y-74828002D01*
G37*
%TD.AperFunction*%
%TA.AperFunction,Conductor*%
G36*
X97534121Y-74828002D02*
G01*
X97580614Y-74881658D01*
X97592000Y-74934000D01*
X97592000Y-94268786D01*
X97571998Y-94336907D01*
X97518342Y-94383400D01*
X97448068Y-94393504D01*
X97383488Y-94364010D01*
X97362786Y-94341056D01*
X97341204Y-94310234D01*
X97330729Y-94301860D01*
X97317282Y-94308928D01*
X96643022Y-94983188D01*
X96635408Y-94997132D01*
X96635539Y-94998965D01*
X96639790Y-95005580D01*
X97318003Y-95683793D01*
X97329777Y-95690223D01*
X97341792Y-95680927D01*
X97362786Y-95650944D01*
X97418243Y-95606615D01*
X97488863Y-95599306D01*
X97552223Y-95631336D01*
X97588209Y-95692537D01*
X97592000Y-95723214D01*
X97592000Y-96306171D01*
X97571998Y-96374292D01*
X97518342Y-96420785D01*
X97448068Y-96430889D01*
X97390435Y-96406997D01*
X97286649Y-96329214D01*
X97271054Y-96320676D01*
X97150606Y-96275522D01*
X97135351Y-96271895D01*
X97084486Y-96266369D01*
X97077672Y-96266000D01*
X97059085Y-96266000D01*
X96990964Y-96245998D01*
X96944471Y-96192342D01*
X96934367Y-96122068D01*
X96960664Y-96061328D01*
X96965140Y-96055729D01*
X96958071Y-96042281D01*
X96283812Y-95368022D01*
X96269868Y-95360408D01*
X96268035Y-95360539D01*
X96261420Y-95364790D01*
X95583207Y-96043003D01*
X95576777Y-96054778D01*
X95583061Y-96062900D01*
X95608925Y-96129018D01*
X95594938Y-96198623D01*
X95545539Y-96249616D01*
X95483405Y-96266001D01*
X95464331Y-96266001D01*
X95457510Y-96266371D01*
X95406648Y-96271895D01*
X95391396Y-96275521D01*
X95270946Y-96320676D01*
X95255351Y-96329214D01*
X95153276Y-96405715D01*
X95140715Y-96418276D01*
X95064214Y-96520351D01*
X95055676Y-96535946D01*
X95010522Y-96656394D01*
X95006895Y-96671649D01*
X95001369Y-96722514D01*
X95001000Y-96729328D01*
X95001000Y-97263885D01*
X95005475Y-97279124D01*
X95006865Y-97280329D01*
X95014548Y-97282000D01*
X96399000Y-97282000D01*
X96467121Y-97302002D01*
X96513614Y-97355658D01*
X96525000Y-97408000D01*
X96525000Y-98787884D01*
X96529475Y-98803123D01*
X96530865Y-98804328D01*
X96538548Y-98805999D01*
X97077669Y-98805999D01*
X97084490Y-98805629D01*
X97135352Y-98800105D01*
X97150604Y-98796479D01*
X97271054Y-98751324D01*
X97286649Y-98742786D01*
X97390435Y-98665003D01*
X97456942Y-98640155D01*
X97526324Y-98655208D01*
X97576554Y-98705383D01*
X97592000Y-98765829D01*
X97592000Y-104935914D01*
X97571998Y-105004035D01*
X97518342Y-105050528D01*
X97448068Y-105060632D01*
X97383488Y-105031138D01*
X97362787Y-105008185D01*
X97251136Y-104848730D01*
X97251134Y-104848727D01*
X97247977Y-104844219D01*
X97090781Y-104687023D01*
X97086273Y-104683866D01*
X97086270Y-104683864D01*
X97010505Y-104630813D01*
X96908677Y-104559512D01*
X96903695Y-104557189D01*
X96903690Y-104557186D01*
X96712178Y-104467883D01*
X96712177Y-104467882D01*
X96707196Y-104465560D01*
X96701888Y-104464138D01*
X96701886Y-104464137D01*
X96636051Y-104446497D01*
X96492463Y-104408022D01*
X96439926Y-104403426D01*
X96373809Y-104377563D01*
X96361813Y-104367000D01*
X90337482Y-98342669D01*
X95001001Y-98342669D01*
X95001371Y-98349490D01*
X95006895Y-98400352D01*
X95010521Y-98415604D01*
X95055676Y-98536054D01*
X95064214Y-98551649D01*
X95140715Y-98653724D01*
X95153276Y-98666285D01*
X95255351Y-98742786D01*
X95270946Y-98751324D01*
X95391394Y-98796478D01*
X95406649Y-98800105D01*
X95457514Y-98805631D01*
X95464328Y-98806000D01*
X95998885Y-98806000D01*
X96014124Y-98801525D01*
X96015329Y-98800135D01*
X96017000Y-98792452D01*
X96017000Y-97808115D01*
X96012525Y-97792876D01*
X96011135Y-97791671D01*
X96003452Y-97790000D01*
X95019116Y-97790000D01*
X95003877Y-97794475D01*
X95002672Y-97795865D01*
X95001001Y-97803548D01*
X95001001Y-98342669D01*
X90337482Y-98342669D01*
X86996288Y-95001475D01*
X94996628Y-95001475D01*
X95015038Y-95211896D01*
X95016941Y-95222691D01*
X95071609Y-95426715D01*
X95075355Y-95437007D01*
X95164623Y-95628441D01*
X95170103Y-95637932D01*
X95200794Y-95681765D01*
X95211271Y-95690140D01*
X95224718Y-95683072D01*
X95898978Y-95008812D01*
X95906592Y-94994868D01*
X95906461Y-94993035D01*
X95902210Y-94986420D01*
X95223997Y-94308207D01*
X95212223Y-94301777D01*
X95200207Y-94311074D01*
X95170103Y-94354068D01*
X95164623Y-94363559D01*
X95075355Y-94554993D01*
X95071609Y-94565285D01*
X95016941Y-94769309D01*
X95015038Y-94780104D01*
X94996628Y-94990525D01*
X94996628Y-95001475D01*
X86996288Y-95001475D01*
X85931084Y-93936271D01*
X95576860Y-93936271D01*
X95583928Y-93949718D01*
X96258188Y-94623978D01*
X96272132Y-94631592D01*
X96273965Y-94631461D01*
X96280580Y-94627210D01*
X96958793Y-93948997D01*
X96965223Y-93937223D01*
X96955926Y-93925207D01*
X96912931Y-93895102D01*
X96903445Y-93889624D01*
X96712007Y-93800355D01*
X96701715Y-93796609D01*
X96497691Y-93741941D01*
X96486896Y-93740038D01*
X96276475Y-93721628D01*
X96265525Y-93721628D01*
X96055104Y-93740038D01*
X96044309Y-93741941D01*
X95840285Y-93796609D01*
X95829993Y-93800355D01*
X95638559Y-93889623D01*
X95629068Y-93895103D01*
X95585235Y-93925794D01*
X95576860Y-93936271D01*
X85931084Y-93936271D01*
X83522769Y-91527956D01*
X83488743Y-91465644D01*
X83493808Y-91394829D01*
X83536355Y-91337993D01*
X83579252Y-91317154D01*
X83733936Y-91275706D01*
X83739243Y-91274284D01*
X83795462Y-91248069D01*
X83941762Y-91179849D01*
X83941767Y-91179846D01*
X83946749Y-91177523D01*
X84088805Y-91078054D01*
X84129789Y-91049357D01*
X84129792Y-91049355D01*
X84134300Y-91046198D01*
X84296198Y-90884300D01*
X84427523Y-90696749D01*
X84429846Y-90691767D01*
X84429849Y-90691762D01*
X84445805Y-90657543D01*
X84492722Y-90604258D01*
X84560999Y-90584797D01*
X84628959Y-90605339D01*
X84674195Y-90657543D01*
X84690151Y-90691762D01*
X84690154Y-90691767D01*
X84692477Y-90696749D01*
X84823802Y-90884300D01*
X84985700Y-91046198D01*
X84990208Y-91049355D01*
X84990211Y-91049357D01*
X85031195Y-91078054D01*
X85173251Y-91177523D01*
X85178233Y-91179846D01*
X85178238Y-91179849D01*
X85324538Y-91248069D01*
X85380757Y-91274284D01*
X85386065Y-91275706D01*
X85386067Y-91275707D01*
X85596598Y-91332119D01*
X85596600Y-91332119D01*
X85601913Y-91333543D01*
X85830000Y-91353498D01*
X86058087Y-91333543D01*
X86063400Y-91332119D01*
X86063402Y-91332119D01*
X86273933Y-91275707D01*
X86273935Y-91275706D01*
X86279243Y-91274284D01*
X86335462Y-91248069D01*
X86481762Y-91179849D01*
X86481767Y-91179846D01*
X86486749Y-91177523D01*
X86628805Y-91078054D01*
X86669789Y-91049357D01*
X86669792Y-91049355D01*
X86674300Y-91046198D01*
X86836198Y-90884300D01*
X86967523Y-90696749D01*
X86969846Y-90691767D01*
X86969849Y-90691762D01*
X86985805Y-90657543D01*
X87032722Y-90604258D01*
X87100999Y-90584797D01*
X87168959Y-90605339D01*
X87214195Y-90657543D01*
X87230151Y-90691762D01*
X87230154Y-90691767D01*
X87232477Y-90696749D01*
X87363802Y-90884300D01*
X87525700Y-91046198D01*
X87530208Y-91049355D01*
X87530211Y-91049357D01*
X87571195Y-91078054D01*
X87713251Y-91177523D01*
X87718233Y-91179846D01*
X87718238Y-91179849D01*
X87864538Y-91248069D01*
X87920757Y-91274284D01*
X87926065Y-91275706D01*
X87926067Y-91275707D01*
X88136598Y-91332119D01*
X88136600Y-91332119D01*
X88141913Y-91333543D01*
X88370000Y-91353498D01*
X88598087Y-91333543D01*
X88603400Y-91332119D01*
X88603402Y-91332119D01*
X88813933Y-91275707D01*
X88813935Y-91275706D01*
X88819243Y-91274284D01*
X88875462Y-91248069D01*
X89021762Y-91179849D01*
X89021767Y-91179846D01*
X89026749Y-91177523D01*
X89168805Y-91078054D01*
X89209789Y-91049357D01*
X89209792Y-91049355D01*
X89214300Y-91046198D01*
X89376198Y-90884300D01*
X89507523Y-90696749D01*
X89509846Y-90691767D01*
X89509849Y-90691762D01*
X89525805Y-90657543D01*
X89572722Y-90604258D01*
X89640999Y-90584797D01*
X89708959Y-90605339D01*
X89754195Y-90657543D01*
X89770151Y-90691762D01*
X89770154Y-90691767D01*
X89772477Y-90696749D01*
X89903802Y-90884300D01*
X90065700Y-91046198D01*
X90070208Y-91049355D01*
X90070211Y-91049357D01*
X90111195Y-91078054D01*
X90253251Y-91177523D01*
X90258233Y-91179846D01*
X90258238Y-91179849D01*
X90404538Y-91248069D01*
X90460757Y-91274284D01*
X90466065Y-91275706D01*
X90466067Y-91275707D01*
X90676598Y-91332119D01*
X90676600Y-91332119D01*
X90681913Y-91333543D01*
X90910000Y-91353498D01*
X91138087Y-91333543D01*
X91143400Y-91332119D01*
X91143402Y-91332119D01*
X91353933Y-91275707D01*
X91353935Y-91275706D01*
X91359243Y-91274284D01*
X91415462Y-91248069D01*
X91561762Y-91179849D01*
X91561767Y-91179846D01*
X91566749Y-91177523D01*
X91708805Y-91078054D01*
X91749789Y-91049357D01*
X91749792Y-91049355D01*
X91754300Y-91046198D01*
X91916198Y-90884300D01*
X92047523Y-90696749D01*
X92049846Y-90691767D01*
X92049849Y-90691762D01*
X92066081Y-90656951D01*
X92112998Y-90603666D01*
X92181275Y-90584205D01*
X92249235Y-90604747D01*
X92294471Y-90656951D01*
X92310586Y-90691511D01*
X92316069Y-90701007D01*
X92441028Y-90879467D01*
X92448084Y-90887875D01*
X92602125Y-91041916D01*
X92610533Y-91048972D01*
X92788993Y-91173931D01*
X92798489Y-91179414D01*
X92995947Y-91271490D01*
X93006239Y-91275236D01*
X93178503Y-91321394D01*
X93192599Y-91321058D01*
X93196000Y-91313116D01*
X93196000Y-91307967D01*
X93704000Y-91307967D01*
X93707973Y-91321498D01*
X93716522Y-91322727D01*
X93893761Y-91275236D01*
X93904053Y-91271490D01*
X94101511Y-91179414D01*
X94111007Y-91173931D01*
X94289467Y-91048972D01*
X94297875Y-91041916D01*
X94451916Y-90887875D01*
X94458972Y-90879467D01*
X94583931Y-90701007D01*
X94589414Y-90691511D01*
X94605529Y-90656951D01*
X94652446Y-90603666D01*
X94720723Y-90584205D01*
X94788683Y-90604747D01*
X94833919Y-90656951D01*
X94850151Y-90691762D01*
X94850154Y-90691767D01*
X94852477Y-90696749D01*
X94983802Y-90884300D01*
X95145700Y-91046198D01*
X95150208Y-91049355D01*
X95150211Y-91049357D01*
X95191195Y-91078054D01*
X95333251Y-91177523D01*
X95338233Y-91179846D01*
X95338238Y-91179849D01*
X95484538Y-91248069D01*
X95540757Y-91274284D01*
X95546065Y-91275706D01*
X95546067Y-91275707D01*
X95756598Y-91332119D01*
X95756600Y-91332119D01*
X95761913Y-91333543D01*
X95990000Y-91353498D01*
X96218087Y-91333543D01*
X96223400Y-91332119D01*
X96223402Y-91332119D01*
X96433933Y-91275707D01*
X96433935Y-91275706D01*
X96439243Y-91274284D01*
X96495462Y-91248069D01*
X96641762Y-91179849D01*
X96641767Y-91179846D01*
X96646749Y-91177523D01*
X96788805Y-91078054D01*
X96829789Y-91049357D01*
X96829792Y-91049355D01*
X96834300Y-91046198D01*
X96996198Y-90884300D01*
X97127523Y-90696749D01*
X97129846Y-90691767D01*
X97129849Y-90691762D01*
X97221961Y-90494225D01*
X97221961Y-90494224D01*
X97224284Y-90489243D01*
X97272970Y-90307548D01*
X97282119Y-90273402D01*
X97282119Y-90273400D01*
X97283543Y-90268087D01*
X97303498Y-90040000D01*
X97283543Y-89811913D01*
X97282119Y-89806598D01*
X97225707Y-89596067D01*
X97225706Y-89596065D01*
X97224284Y-89590757D01*
X97219024Y-89579476D01*
X97129849Y-89388238D01*
X97129846Y-89388233D01*
X97127523Y-89383251D01*
X97042455Y-89261762D01*
X96999357Y-89200211D01*
X96999355Y-89200208D01*
X96996198Y-89195700D01*
X96834300Y-89033802D01*
X96829792Y-89030645D01*
X96829789Y-89030643D01*
X96680990Y-88926453D01*
X96646749Y-88902477D01*
X96641767Y-88900154D01*
X96641762Y-88900151D01*
X96444225Y-88808039D01*
X96444224Y-88808039D01*
X96439243Y-88805716D01*
X96433935Y-88804294D01*
X96433933Y-88804293D01*
X96223402Y-88747881D01*
X96223400Y-88747881D01*
X96218087Y-88746457D01*
X95990000Y-88726502D01*
X95761913Y-88746457D01*
X95756600Y-88747881D01*
X95756598Y-88747881D01*
X95546067Y-88804293D01*
X95546065Y-88804294D01*
X95540757Y-88805716D01*
X95535776Y-88808039D01*
X95535775Y-88808039D01*
X95338238Y-88900151D01*
X95338233Y-88900154D01*
X95333251Y-88902477D01*
X95299010Y-88926453D01*
X95150211Y-89030643D01*
X95150208Y-89030645D01*
X95145700Y-89033802D01*
X94983802Y-89195700D01*
X94980645Y-89200208D01*
X94980643Y-89200211D01*
X94937545Y-89261762D01*
X94852477Y-89383251D01*
X94850154Y-89388233D01*
X94850151Y-89388238D01*
X94833919Y-89423049D01*
X94787002Y-89476334D01*
X94718725Y-89495795D01*
X94650765Y-89475253D01*
X94605529Y-89423049D01*
X94589414Y-89388489D01*
X94583931Y-89378993D01*
X94458972Y-89200533D01*
X94451916Y-89192125D01*
X94297875Y-89038084D01*
X94289467Y-89031028D01*
X94111007Y-88906069D01*
X94101511Y-88900586D01*
X93904053Y-88808510D01*
X93893761Y-88804764D01*
X93721497Y-88758606D01*
X93707401Y-88758942D01*
X93704000Y-88766884D01*
X93704000Y-91307967D01*
X93196000Y-91307967D01*
X93196000Y-88772033D01*
X93192027Y-88758502D01*
X93183478Y-88757273D01*
X93006239Y-88804764D01*
X92995947Y-88808510D01*
X92798489Y-88900586D01*
X92788993Y-88906069D01*
X92610533Y-89031028D01*
X92602125Y-89038084D01*
X92448084Y-89192125D01*
X92441028Y-89200533D01*
X92316069Y-89378993D01*
X92310586Y-89388489D01*
X92294471Y-89423049D01*
X92247554Y-89476334D01*
X92179277Y-89495795D01*
X92111317Y-89475253D01*
X92066081Y-89423049D01*
X92049849Y-89388238D01*
X92049846Y-89388233D01*
X92047523Y-89383251D01*
X91962455Y-89261762D01*
X91919357Y-89200211D01*
X91919355Y-89200208D01*
X91916198Y-89195700D01*
X91754300Y-89033802D01*
X91749792Y-89030645D01*
X91749789Y-89030643D01*
X91600990Y-88926453D01*
X91566749Y-88902477D01*
X91561767Y-88900154D01*
X91561762Y-88900151D01*
X91364225Y-88808039D01*
X91364224Y-88808039D01*
X91359243Y-88805716D01*
X91353935Y-88804294D01*
X91353933Y-88804293D01*
X91143402Y-88747881D01*
X91143400Y-88747881D01*
X91138087Y-88746457D01*
X90910000Y-88726502D01*
X90681913Y-88746457D01*
X90676600Y-88747881D01*
X90676598Y-88747881D01*
X90466067Y-88804293D01*
X90466065Y-88804294D01*
X90460757Y-88805716D01*
X90455776Y-88808039D01*
X90455775Y-88808039D01*
X90258238Y-88900151D01*
X90258233Y-88900154D01*
X90253251Y-88902477D01*
X90219010Y-88926453D01*
X90070211Y-89030643D01*
X90070208Y-89030645D01*
X90065700Y-89033802D01*
X89903802Y-89195700D01*
X89900645Y-89200208D01*
X89900643Y-89200211D01*
X89857545Y-89261762D01*
X89772477Y-89383251D01*
X89770154Y-89388233D01*
X89770151Y-89388238D01*
X89754195Y-89422457D01*
X89707278Y-89475742D01*
X89639001Y-89495203D01*
X89571041Y-89474661D01*
X89525805Y-89422457D01*
X89509849Y-89388238D01*
X89509846Y-89388233D01*
X89507523Y-89383251D01*
X89422455Y-89261762D01*
X89379357Y-89200211D01*
X89379355Y-89200208D01*
X89376198Y-89195700D01*
X89214300Y-89033802D01*
X89209792Y-89030645D01*
X89209789Y-89030643D01*
X89060990Y-88926453D01*
X89026749Y-88902477D01*
X89021767Y-88900154D01*
X89021762Y-88900151D01*
X88824225Y-88808039D01*
X88824224Y-88808039D01*
X88819243Y-88805716D01*
X88813935Y-88804294D01*
X88813933Y-88804293D01*
X88603402Y-88747881D01*
X88603400Y-88747881D01*
X88598087Y-88746457D01*
X88370000Y-88726502D01*
X88141913Y-88746457D01*
X88136600Y-88747881D01*
X88136598Y-88747881D01*
X87926067Y-88804293D01*
X87926065Y-88804294D01*
X87920757Y-88805716D01*
X87915776Y-88808039D01*
X87915775Y-88808039D01*
X87718238Y-88900151D01*
X87718233Y-88900154D01*
X87713251Y-88902477D01*
X87679010Y-88926453D01*
X87530211Y-89030643D01*
X87530208Y-89030645D01*
X87525700Y-89033802D01*
X87363802Y-89195700D01*
X87360645Y-89200208D01*
X87360643Y-89200211D01*
X87317545Y-89261762D01*
X87232477Y-89383251D01*
X87230154Y-89388233D01*
X87230151Y-89388238D01*
X87214195Y-89422457D01*
X87167278Y-89475742D01*
X87099001Y-89495203D01*
X87031041Y-89474661D01*
X86985805Y-89422457D01*
X86969849Y-89388238D01*
X86969846Y-89388233D01*
X86967523Y-89383251D01*
X86882455Y-89261762D01*
X86839357Y-89200211D01*
X86839355Y-89200208D01*
X86836198Y-89195700D01*
X86674300Y-89033802D01*
X86669792Y-89030645D01*
X86669789Y-89030643D01*
X86520990Y-88926453D01*
X86486749Y-88902477D01*
X86481767Y-88900154D01*
X86481762Y-88900151D01*
X86284225Y-88808039D01*
X86284224Y-88808039D01*
X86279243Y-88805716D01*
X86273935Y-88804294D01*
X86273933Y-88804293D01*
X86063402Y-88747881D01*
X86063400Y-88747881D01*
X86058087Y-88746457D01*
X85830000Y-88726502D01*
X85601913Y-88746457D01*
X85596600Y-88747881D01*
X85596598Y-88747881D01*
X85386067Y-88804293D01*
X85386065Y-88804294D01*
X85380757Y-88805716D01*
X85375776Y-88808039D01*
X85375775Y-88808039D01*
X85178238Y-88900151D01*
X85178233Y-88900154D01*
X85173251Y-88902477D01*
X85139010Y-88926453D01*
X84990211Y-89030643D01*
X84990208Y-89030645D01*
X84985700Y-89033802D01*
X84823802Y-89195700D01*
X84820645Y-89200208D01*
X84820643Y-89200211D01*
X84777545Y-89261762D01*
X84692477Y-89383251D01*
X84690154Y-89388233D01*
X84690151Y-89388238D01*
X84674195Y-89422457D01*
X84627278Y-89475742D01*
X84559001Y-89495203D01*
X84491041Y-89474661D01*
X84445805Y-89422457D01*
X84429849Y-89388238D01*
X84429846Y-89388233D01*
X84427523Y-89383251D01*
X84342455Y-89261762D01*
X84299357Y-89200211D01*
X84299355Y-89200208D01*
X84296198Y-89195700D01*
X84134300Y-89033802D01*
X84129792Y-89030645D01*
X84129789Y-89030643D01*
X83980990Y-88926453D01*
X83946749Y-88902477D01*
X83941767Y-88900154D01*
X83941762Y-88900151D01*
X83744225Y-88808039D01*
X83744224Y-88808039D01*
X83739243Y-88805716D01*
X83700049Y-88795214D01*
X83579252Y-88762846D01*
X83518630Y-88725894D01*
X83487608Y-88662033D01*
X83496037Y-88591539D01*
X83522769Y-88552044D01*
X86414832Y-85659981D01*
X86429865Y-85647140D01*
X86435913Y-85642746D01*
X86435914Y-85642745D01*
X86441253Y-85638866D01*
X86487016Y-85588041D01*
X86491557Y-85583256D01*
X86506072Y-85568741D01*
X86518994Y-85552784D01*
X86523278Y-85547769D01*
X86564619Y-85501855D01*
X86564623Y-85501850D01*
X86569040Y-85496944D01*
X86572340Y-85491228D01*
X86572343Y-85491224D01*
X86576073Y-85484763D01*
X86587273Y-85468466D01*
X86591975Y-85462660D01*
X86591976Y-85462658D01*
X86596129Y-85457530D01*
X86602147Y-85445720D01*
X86627188Y-85396574D01*
X86630336Y-85390777D01*
X86661224Y-85337277D01*
X86664527Y-85331556D01*
X86668875Y-85318174D01*
X86676438Y-85299915D01*
X86682830Y-85287370D01*
X86700537Y-85221288D01*
X86702409Y-85214969D01*
X86721501Y-85156210D01*
X86721501Y-85156209D01*
X86723542Y-85149928D01*
X86725014Y-85135925D01*
X86728615Y-85116496D01*
X86732257Y-85102903D01*
X86734853Y-85053368D01*
X86735836Y-85034616D01*
X86736353Y-85028042D01*
X86738156Y-85010884D01*
X86738156Y-85010882D01*
X86738500Y-85007610D01*
X86738500Y-84987074D01*
X86738673Y-84980480D01*
X86741907Y-84918782D01*
X86741907Y-84918777D01*
X86742252Y-84912190D01*
X86740051Y-84898292D01*
X86738500Y-84878583D01*
X86738500Y-84360588D01*
X93187483Y-84360588D01*
X93206472Y-84577632D01*
X93208375Y-84588425D01*
X93264764Y-84798874D01*
X93268510Y-84809166D01*
X93360586Y-85006624D01*
X93366071Y-85016124D01*
X93366701Y-85017023D01*
X93366856Y-85017483D01*
X93368818Y-85020881D01*
X93368135Y-85021275D01*
X93389388Y-85084297D01*
X93372102Y-85153157D01*
X93349066Y-85178916D01*
X93350270Y-85180120D01*
X93343919Y-85186471D01*
X93336739Y-85191852D01*
X93331358Y-85199032D01*
X93331355Y-85199035D01*
X93317056Y-85218115D01*
X93249385Y-85308408D01*
X93198255Y-85444797D01*
X93191500Y-85506979D01*
X93191500Y-87203247D01*
X93191869Y-87206644D01*
X93192185Y-87209553D01*
X93198255Y-87265429D01*
X93249385Y-87401818D01*
X93336739Y-87518374D01*
X93453295Y-87605728D01*
X93589684Y-87656858D01*
X93651866Y-87663613D01*
X95348134Y-87663613D01*
X95410316Y-87656858D01*
X95546705Y-87605728D01*
X95663261Y-87518374D01*
X95750615Y-87401818D01*
X95801745Y-87265429D01*
X95807815Y-87209553D01*
X95808131Y-87206644D01*
X95808500Y-87203247D01*
X95808500Y-85506979D01*
X95801745Y-85444797D01*
X95750615Y-85308408D01*
X95682944Y-85218115D01*
X95668645Y-85199035D01*
X95668642Y-85199032D01*
X95663261Y-85191852D01*
X95656081Y-85186471D01*
X95649730Y-85180120D01*
X95651872Y-85177978D01*
X95618436Y-85133267D01*
X95613406Y-85062449D01*
X95631523Y-85021078D01*
X95631182Y-85020881D01*
X95632952Y-85017815D01*
X95633299Y-85017023D01*
X95633929Y-85016124D01*
X95639414Y-85006624D01*
X95731490Y-84809166D01*
X95735236Y-84798874D01*
X95791625Y-84588425D01*
X95793528Y-84577632D01*
X95812517Y-84360588D01*
X95812517Y-84349638D01*
X95793528Y-84132594D01*
X95791625Y-84121801D01*
X95735236Y-83911352D01*
X95731490Y-83901060D01*
X95639414Y-83703602D01*
X95633931Y-83694107D01*
X95597491Y-83642065D01*
X95587012Y-83633689D01*
X95573566Y-83640757D01*
X94589095Y-84625228D01*
X94526783Y-84659254D01*
X94455968Y-84654189D01*
X94410905Y-84625228D01*
X93425713Y-83640036D01*
X93413938Y-83633606D01*
X93401923Y-83642902D01*
X93366069Y-83694107D01*
X93360586Y-83703602D01*
X93268510Y-83901060D01*
X93264764Y-83911352D01*
X93208375Y-84121801D01*
X93206472Y-84132594D01*
X93187483Y-84349638D01*
X93187483Y-84360588D01*
X86738500Y-84360588D01*
X86738500Y-83268101D01*
X93778576Y-83268101D01*
X93785644Y-83281547D01*
X94487188Y-83983091D01*
X94501132Y-83990705D01*
X94502965Y-83990574D01*
X94509580Y-83986323D01*
X95215077Y-83280826D01*
X95221507Y-83269051D01*
X95212211Y-83257036D01*
X95161006Y-83221182D01*
X95151511Y-83215699D01*
X94954053Y-83123623D01*
X94943761Y-83119877D01*
X94733312Y-83063488D01*
X94722519Y-83061585D01*
X94505475Y-83042596D01*
X94494525Y-83042596D01*
X94277481Y-83061585D01*
X94266688Y-83063488D01*
X94056239Y-83119877D01*
X94045947Y-83123623D01*
X93848489Y-83215699D01*
X93838994Y-83221182D01*
X93786952Y-83257622D01*
X93778576Y-83268101D01*
X86738500Y-83268101D01*
X86738500Y-78334188D01*
X86758502Y-78266067D01*
X86775405Y-78245093D01*
X86836198Y-78184300D01*
X86847059Y-78168790D01*
X86935034Y-78043148D01*
X86967523Y-77996749D01*
X86969846Y-77991767D01*
X86969849Y-77991762D01*
X86985805Y-77957543D01*
X87032722Y-77904258D01*
X87100999Y-77884797D01*
X87168959Y-77905339D01*
X87214195Y-77957543D01*
X87230151Y-77991762D01*
X87230154Y-77991767D01*
X87232477Y-77996749D01*
X87264966Y-78043148D01*
X87352942Y-78168790D01*
X87363802Y-78184300D01*
X87525700Y-78346198D01*
X87530208Y-78349355D01*
X87530211Y-78349357D01*
X87558800Y-78369375D01*
X87713251Y-78477523D01*
X87718233Y-78479846D01*
X87718238Y-78479849D01*
X87914765Y-78571490D01*
X87920757Y-78574284D01*
X87926065Y-78575706D01*
X87926067Y-78575707D01*
X88136598Y-78632119D01*
X88136600Y-78632119D01*
X88141913Y-78633543D01*
X88370000Y-78653498D01*
X88598087Y-78633543D01*
X88603400Y-78632119D01*
X88603402Y-78632119D01*
X88813933Y-78575707D01*
X88813935Y-78575706D01*
X88819243Y-78574284D01*
X88825235Y-78571490D01*
X89021762Y-78479849D01*
X89021767Y-78479846D01*
X89026749Y-78477523D01*
X89181200Y-78369375D01*
X89209789Y-78349357D01*
X89209792Y-78349355D01*
X89214300Y-78346198D01*
X89376198Y-78184300D01*
X89387059Y-78168790D01*
X89475034Y-78043148D01*
X89507523Y-77996749D01*
X89509846Y-77991767D01*
X89509849Y-77991762D01*
X89525805Y-77957543D01*
X89572722Y-77904258D01*
X89640999Y-77884797D01*
X89708959Y-77905339D01*
X89754195Y-77957543D01*
X89770151Y-77991762D01*
X89770154Y-77991767D01*
X89772477Y-77996749D01*
X89804966Y-78043148D01*
X89892942Y-78168790D01*
X89903802Y-78184300D01*
X90065700Y-78346198D01*
X90070208Y-78349355D01*
X90070211Y-78349357D01*
X90098800Y-78369375D01*
X90253251Y-78477523D01*
X90258233Y-78479846D01*
X90258238Y-78479849D01*
X90454765Y-78571490D01*
X90460757Y-78574284D01*
X90466065Y-78575706D01*
X90466067Y-78575707D01*
X90676598Y-78632119D01*
X90676600Y-78632119D01*
X90681913Y-78633543D01*
X90910000Y-78653498D01*
X91138087Y-78633543D01*
X91143400Y-78632119D01*
X91143402Y-78632119D01*
X91353933Y-78575707D01*
X91353935Y-78575706D01*
X91359243Y-78574284D01*
X91365235Y-78571490D01*
X91561762Y-78479849D01*
X91561767Y-78479846D01*
X91566749Y-78477523D01*
X91721200Y-78369375D01*
X91749789Y-78349357D01*
X91749792Y-78349355D01*
X91754300Y-78346198D01*
X91916198Y-78184300D01*
X91927059Y-78168790D01*
X92015034Y-78043148D01*
X92047523Y-77996749D01*
X92049846Y-77991767D01*
X92049849Y-77991762D01*
X92065805Y-77957543D01*
X92112722Y-77904258D01*
X92180999Y-77884797D01*
X92248959Y-77905339D01*
X92294195Y-77957543D01*
X92310151Y-77991762D01*
X92310154Y-77991767D01*
X92312477Y-77996749D01*
X92344966Y-78043148D01*
X92432942Y-78168790D01*
X92443802Y-78184300D01*
X92605700Y-78346198D01*
X92610208Y-78349355D01*
X92610211Y-78349357D01*
X92638800Y-78369375D01*
X92793251Y-78477523D01*
X92798233Y-78479846D01*
X92798238Y-78479849D01*
X92994765Y-78571490D01*
X93000757Y-78574284D01*
X93006065Y-78575706D01*
X93006067Y-78575707D01*
X93216598Y-78632119D01*
X93216600Y-78632119D01*
X93221913Y-78633543D01*
X93450000Y-78653498D01*
X93678087Y-78633543D01*
X93683400Y-78632119D01*
X93683402Y-78632119D01*
X93893933Y-78575707D01*
X93893935Y-78575706D01*
X93899243Y-78574284D01*
X93905235Y-78571490D01*
X94101762Y-78479849D01*
X94101767Y-78479846D01*
X94106749Y-78477523D01*
X94261200Y-78369375D01*
X94289789Y-78349357D01*
X94289792Y-78349355D01*
X94294300Y-78346198D01*
X94456198Y-78184300D01*
X94467059Y-78168790D01*
X94555034Y-78043148D01*
X94587523Y-77996749D01*
X94589846Y-77991767D01*
X94589849Y-77991762D01*
X94606081Y-77956951D01*
X94652998Y-77903666D01*
X94721275Y-77884205D01*
X94789235Y-77904747D01*
X94834471Y-77956951D01*
X94850586Y-77991511D01*
X94856069Y-78001007D01*
X94981028Y-78179467D01*
X94988084Y-78187875D01*
X95142125Y-78341916D01*
X95150533Y-78348972D01*
X95328993Y-78473931D01*
X95338489Y-78479414D01*
X95535947Y-78571490D01*
X95546239Y-78575236D01*
X95718503Y-78621394D01*
X95732599Y-78621058D01*
X95736000Y-78613116D01*
X95736000Y-78607967D01*
X96244000Y-78607967D01*
X96247973Y-78621498D01*
X96256522Y-78622727D01*
X96433761Y-78575236D01*
X96444053Y-78571490D01*
X96641511Y-78479414D01*
X96651007Y-78473931D01*
X96829467Y-78348972D01*
X96837875Y-78341916D01*
X96991916Y-78187875D01*
X96998972Y-78179467D01*
X97123931Y-78001007D01*
X97129414Y-77991511D01*
X97221490Y-77794053D01*
X97225236Y-77783761D01*
X97271394Y-77611497D01*
X97271058Y-77597401D01*
X97263116Y-77594000D01*
X96262115Y-77594000D01*
X96246876Y-77598475D01*
X96245671Y-77599865D01*
X96244000Y-77607548D01*
X96244000Y-78607967D01*
X95736000Y-78607967D01*
X95736000Y-77067885D01*
X96244000Y-77067885D01*
X96248475Y-77083124D01*
X96249865Y-77084329D01*
X96257548Y-77086000D01*
X97257967Y-77086000D01*
X97271498Y-77082027D01*
X97272727Y-77073478D01*
X97225236Y-76896239D01*
X97221490Y-76885947D01*
X97129414Y-76688489D01*
X97123931Y-76678993D01*
X96998972Y-76500533D01*
X96991916Y-76492125D01*
X96837875Y-76338084D01*
X96829467Y-76331028D01*
X96651007Y-76206069D01*
X96641511Y-76200586D01*
X96444053Y-76108510D01*
X96433761Y-76104764D01*
X96261497Y-76058606D01*
X96247401Y-76058942D01*
X96244000Y-76066884D01*
X96244000Y-77067885D01*
X95736000Y-77067885D01*
X95736000Y-76072033D01*
X95732027Y-76058502D01*
X95723478Y-76057273D01*
X95546239Y-76104764D01*
X95535947Y-76108510D01*
X95338489Y-76200586D01*
X95328993Y-76206069D01*
X95150533Y-76331028D01*
X95142125Y-76338084D01*
X94988084Y-76492125D01*
X94981028Y-76500533D01*
X94856069Y-76678993D01*
X94850586Y-76688489D01*
X94834471Y-76723049D01*
X94787554Y-76776334D01*
X94719277Y-76795795D01*
X94651317Y-76775253D01*
X94606081Y-76723049D01*
X94589849Y-76688238D01*
X94589846Y-76688233D01*
X94587523Y-76683251D01*
X94456198Y-76495700D01*
X94294300Y-76333802D01*
X94289792Y-76330645D01*
X94289789Y-76330643D01*
X94211611Y-76275902D01*
X94106749Y-76202477D01*
X94101767Y-76200154D01*
X94101762Y-76200151D01*
X93904225Y-76108039D01*
X93904224Y-76108039D01*
X93899243Y-76105716D01*
X93893935Y-76104294D01*
X93893933Y-76104293D01*
X93683402Y-76047881D01*
X93683400Y-76047881D01*
X93678087Y-76046457D01*
X93450000Y-76026502D01*
X93221913Y-76046457D01*
X93216600Y-76047881D01*
X93216598Y-76047881D01*
X93006067Y-76104293D01*
X93006065Y-76104294D01*
X93000757Y-76105716D01*
X92995776Y-76108039D01*
X92995775Y-76108039D01*
X92798238Y-76200151D01*
X92798233Y-76200154D01*
X92793251Y-76202477D01*
X92688389Y-76275902D01*
X92610211Y-76330643D01*
X92610208Y-76330645D01*
X92605700Y-76333802D01*
X92443802Y-76495700D01*
X92312477Y-76683251D01*
X92310154Y-76688233D01*
X92310151Y-76688238D01*
X92294195Y-76722457D01*
X92247278Y-76775742D01*
X92179001Y-76795203D01*
X92111041Y-76774661D01*
X92065805Y-76722457D01*
X92049849Y-76688238D01*
X92049846Y-76688233D01*
X92047523Y-76683251D01*
X91916198Y-76495700D01*
X91754300Y-76333802D01*
X91749792Y-76330645D01*
X91749789Y-76330643D01*
X91671611Y-76275902D01*
X91566749Y-76202477D01*
X91561767Y-76200154D01*
X91561762Y-76200151D01*
X91364225Y-76108039D01*
X91364224Y-76108039D01*
X91359243Y-76105716D01*
X91353935Y-76104294D01*
X91353933Y-76104293D01*
X91143402Y-76047881D01*
X91143400Y-76047881D01*
X91138087Y-76046457D01*
X90910000Y-76026502D01*
X90681913Y-76046457D01*
X90676600Y-76047881D01*
X90676598Y-76047881D01*
X90466067Y-76104293D01*
X90466065Y-76104294D01*
X90460757Y-76105716D01*
X90455776Y-76108039D01*
X90455775Y-76108039D01*
X90258238Y-76200151D01*
X90258233Y-76200154D01*
X90253251Y-76202477D01*
X90148389Y-76275902D01*
X90070211Y-76330643D01*
X90070208Y-76330645D01*
X90065700Y-76333802D01*
X89903802Y-76495700D01*
X89772477Y-76683251D01*
X89770154Y-76688233D01*
X89770151Y-76688238D01*
X89754195Y-76722457D01*
X89707278Y-76775742D01*
X89639001Y-76795203D01*
X89571041Y-76774661D01*
X89525805Y-76722457D01*
X89509849Y-76688238D01*
X89509846Y-76688233D01*
X89507523Y-76683251D01*
X89376198Y-76495700D01*
X89214300Y-76333802D01*
X89209792Y-76330645D01*
X89209789Y-76330643D01*
X89131611Y-76275902D01*
X89026749Y-76202477D01*
X89021767Y-76200154D01*
X89021762Y-76200151D01*
X88824225Y-76108039D01*
X88824224Y-76108039D01*
X88819243Y-76105716D01*
X88813935Y-76104294D01*
X88813933Y-76104293D01*
X88603402Y-76047881D01*
X88603400Y-76047881D01*
X88598087Y-76046457D01*
X88370000Y-76026502D01*
X88141913Y-76046457D01*
X88136600Y-76047881D01*
X88136598Y-76047881D01*
X87926067Y-76104293D01*
X87926065Y-76104294D01*
X87920757Y-76105716D01*
X87915776Y-76108039D01*
X87915775Y-76108039D01*
X87718238Y-76200151D01*
X87718233Y-76200154D01*
X87713251Y-76202477D01*
X87608389Y-76275902D01*
X87530211Y-76330643D01*
X87530208Y-76330645D01*
X87525700Y-76333802D01*
X87363802Y-76495700D01*
X87232477Y-76683251D01*
X87230154Y-76688233D01*
X87230151Y-76688238D01*
X87214195Y-76722457D01*
X87167278Y-76775742D01*
X87099001Y-76795203D01*
X87031041Y-76774661D01*
X86985805Y-76722457D01*
X86969849Y-76688238D01*
X86969846Y-76688233D01*
X86967523Y-76683251D01*
X86836198Y-76495700D01*
X86674300Y-76333802D01*
X86669792Y-76330645D01*
X86669789Y-76330643D01*
X86591611Y-76275902D01*
X86486749Y-76202477D01*
X86481767Y-76200154D01*
X86481762Y-76200151D01*
X86284225Y-76108039D01*
X86284224Y-76108039D01*
X86279243Y-76105716D01*
X86273935Y-76104294D01*
X86273933Y-76104293D01*
X86063402Y-76047881D01*
X86063400Y-76047881D01*
X86058087Y-76046457D01*
X85830000Y-76026502D01*
X85601913Y-76046457D01*
X85596600Y-76047881D01*
X85596598Y-76047881D01*
X85386067Y-76104293D01*
X85386065Y-76104294D01*
X85380757Y-76105716D01*
X85375776Y-76108039D01*
X85375775Y-76108039D01*
X85178238Y-76200151D01*
X85178233Y-76200154D01*
X85173251Y-76202477D01*
X85068389Y-76275902D01*
X84990211Y-76330643D01*
X84990208Y-76330645D01*
X84985700Y-76333802D01*
X84823802Y-76495700D01*
X84692477Y-76683251D01*
X84690154Y-76688233D01*
X84690151Y-76688238D01*
X84674195Y-76722457D01*
X84627278Y-76775742D01*
X84559001Y-76795203D01*
X84491041Y-76774661D01*
X84445805Y-76722457D01*
X84429849Y-76688238D01*
X84429846Y-76688233D01*
X84427523Y-76683251D01*
X84296198Y-76495700D01*
X84134300Y-76333802D01*
X84129792Y-76330645D01*
X84129789Y-76330643D01*
X84051611Y-76275902D01*
X83946749Y-76202477D01*
X83941767Y-76200154D01*
X83941762Y-76200151D01*
X83744225Y-76108039D01*
X83744224Y-76108039D01*
X83739243Y-76105716D01*
X83733935Y-76104294D01*
X83733933Y-76104293D01*
X83523402Y-76047881D01*
X83523400Y-76047881D01*
X83518087Y-76046457D01*
X83290000Y-76026502D01*
X83061913Y-76046457D01*
X83056600Y-76047881D01*
X83056598Y-76047881D01*
X82846067Y-76104293D01*
X82846065Y-76104294D01*
X82840757Y-76105716D01*
X82835776Y-76108039D01*
X82835775Y-76108039D01*
X82638238Y-76200151D01*
X82638233Y-76200154D01*
X82633251Y-76202477D01*
X82528389Y-76275902D01*
X82450211Y-76330643D01*
X82450208Y-76330645D01*
X82445700Y-76333802D01*
X82283802Y-76495700D01*
X82152477Y-76683251D01*
X82150154Y-76688233D01*
X82150151Y-76688238D01*
X82134195Y-76722457D01*
X82087278Y-76775742D01*
X82019001Y-76795203D01*
X81951041Y-76774661D01*
X81905805Y-76722457D01*
X81889849Y-76688238D01*
X81889846Y-76688233D01*
X81887523Y-76683251D01*
X81756198Y-76495700D01*
X81594300Y-76333802D01*
X81589792Y-76330645D01*
X81589789Y-76330643D01*
X81511611Y-76275902D01*
X81406749Y-76202477D01*
X81401767Y-76200154D01*
X81401762Y-76200151D01*
X81204225Y-76108039D01*
X81204224Y-76108039D01*
X81199243Y-76105716D01*
X81193935Y-76104294D01*
X81193933Y-76104293D01*
X80983402Y-76047881D01*
X80983400Y-76047881D01*
X80978087Y-76046457D01*
X80750000Y-76026502D01*
X80521913Y-76046457D01*
X80516600Y-76047881D01*
X80516598Y-76047881D01*
X80430574Y-76070931D01*
X80359597Y-76069241D01*
X80308868Y-76038319D01*
X79674315Y-75403766D01*
X79663448Y-75391375D01*
X79649013Y-75372563D01*
X79643987Y-75366013D01*
X79612075Y-75341526D01*
X79612069Y-75341520D01*
X79523429Y-75273504D01*
X79523427Y-75273503D01*
X79516876Y-75268476D01*
X79368851Y-75207162D01*
X79360664Y-75206084D01*
X79360663Y-75206084D01*
X79349458Y-75204609D01*
X79318262Y-75200502D01*
X79249885Y-75191500D01*
X79249882Y-75191500D01*
X79249874Y-75191499D01*
X79218189Y-75187328D01*
X79210000Y-75186250D01*
X79178307Y-75190422D01*
X79161864Y-75191500D01*
X78243192Y-75191500D01*
X78226749Y-75190422D01*
X78195056Y-75186250D01*
X78186867Y-75187328D01*
X78155182Y-75191499D01*
X78155173Y-75191500D01*
X78155171Y-75191500D01*
X78155165Y-75191501D01*
X78155163Y-75191501D01*
X78055599Y-75204609D01*
X78044392Y-75206084D01*
X78044390Y-75206085D01*
X78036205Y-75207162D01*
X77888180Y-75268476D01*
X77855954Y-75293204D01*
X77792993Y-75341515D01*
X77792977Y-75341529D01*
X77767622Y-75360984D01*
X77767619Y-75360987D01*
X77761069Y-75366013D01*
X77756039Y-75372568D01*
X77741604Y-75391379D01*
X77730737Y-75403770D01*
X76503766Y-76630741D01*
X76491375Y-76641608D01*
X76466013Y-76661069D01*
X76441526Y-76692981D01*
X76441523Y-76692984D01*
X76441517Y-76692992D01*
X76378850Y-76774661D01*
X76368476Y-76788180D01*
X76307162Y-76936205D01*
X76307162Y-76936206D01*
X76305414Y-76949482D01*
X76292748Y-77045689D01*
X76291500Y-77055171D01*
X76291500Y-77055176D01*
X76286250Y-77095056D01*
X76287328Y-77103244D01*
X76290422Y-77126746D01*
X76291500Y-77143192D01*
X76291500Y-80480761D01*
X76271498Y-80548882D01*
X76254595Y-80569856D01*
X75573595Y-81250856D01*
X75511283Y-81284882D01*
X75440468Y-81279817D01*
X75383632Y-81237270D01*
X75358821Y-81170750D01*
X75358500Y-81161761D01*
X75358500Y-80426866D01*
X75351745Y-80364684D01*
X75300615Y-80228295D01*
X75213261Y-80111739D01*
X75096705Y-80024385D01*
X75065394Y-80012647D01*
X74978203Y-79979960D01*
X74921439Y-79937318D01*
X74896739Y-79870756D01*
X74911947Y-79801408D01*
X74933493Y-79772727D01*
X75016801Y-79689710D01*
X75038096Y-79668489D01*
X75066779Y-79628573D01*
X75165435Y-79491277D01*
X75168453Y-79487077D01*
X75183715Y-79456198D01*
X75265136Y-79291453D01*
X75265137Y-79291451D01*
X75267430Y-79286811D01*
X75332370Y-79073069D01*
X75361529Y-78851590D01*
X75363156Y-78785000D01*
X75344852Y-78562361D01*
X75290431Y-78345702D01*
X75201354Y-78140840D01*
X75133486Y-78035932D01*
X75082822Y-77957617D01*
X75082820Y-77957614D01*
X75080014Y-77953277D01*
X74929670Y-77788051D01*
X74925619Y-77784852D01*
X74925615Y-77784848D01*
X74758414Y-77652800D01*
X74758410Y-77652798D01*
X74754359Y-77649598D01*
X74713053Y-77626796D01*
X74663084Y-77576364D01*
X74648312Y-77506921D01*
X74673428Y-77440516D01*
X74700780Y-77413909D01*
X74750790Y-77378237D01*
X74879860Y-77286173D01*
X74887418Y-77278642D01*
X75016670Y-77149840D01*
X75038096Y-77128489D01*
X75090777Y-77055176D01*
X75165435Y-76951277D01*
X75168453Y-76947077D01*
X75173827Y-76936205D01*
X75265136Y-76751453D01*
X75265137Y-76751451D01*
X75267430Y-76746811D01*
X75332370Y-76533069D01*
X75361529Y-76311590D01*
X75363156Y-76245000D01*
X75344852Y-76022361D01*
X75290431Y-75805702D01*
X75201354Y-75600840D01*
X75115865Y-75468694D01*
X75082822Y-75417617D01*
X75082820Y-75417614D01*
X75080014Y-75413277D01*
X74929670Y-75248051D01*
X74925619Y-75244852D01*
X74925615Y-75244848D01*
X74758414Y-75112800D01*
X74758410Y-75112798D01*
X74754359Y-75109598D01*
X74636086Y-75044308D01*
X74586117Y-74993876D01*
X74571345Y-74924433D01*
X74596461Y-74858028D01*
X74653492Y-74815743D01*
X74696981Y-74808000D01*
X97466000Y-74808000D01*
X97534121Y-74828002D01*
G37*
%TD.AperFunction*%
%TA.AperFunction,Conductor*%
G36*
X84628959Y-77905339D02*
G01*
X84674195Y-77957543D01*
X84690151Y-77991762D01*
X84690154Y-77991767D01*
X84692477Y-77996749D01*
X84724966Y-78043148D01*
X84812942Y-78168790D01*
X84823802Y-78184300D01*
X84884595Y-78245093D01*
X84918621Y-78307405D01*
X84921500Y-78334188D01*
X84921500Y-80242880D01*
X84901498Y-80311001D01*
X84847842Y-80357494D01*
X84799874Y-80368804D01*
X84793430Y-80369028D01*
X84784951Y-80374260D01*
X82972020Y-82187190D01*
X82964408Y-82201131D01*
X82964539Y-82202966D01*
X82968790Y-82209580D01*
X84779776Y-84020565D01*
X84800063Y-84031643D01*
X84855885Y-84043786D01*
X84906087Y-84093988D01*
X84921500Y-84154374D01*
X84921500Y-84531497D01*
X84901498Y-84599618D01*
X84884595Y-84620592D01*
X80813864Y-88691323D01*
X80751552Y-88725349D01*
X80735754Y-88727748D01*
X80657096Y-88734630D01*
X80527394Y-88745977D01*
X80527389Y-88745978D01*
X80521913Y-88746457D01*
X80516600Y-88747881D01*
X80516598Y-88747881D01*
X80306067Y-88804293D01*
X80306065Y-88804294D01*
X80300757Y-88805716D01*
X80295776Y-88808039D01*
X80295775Y-88808039D01*
X80098238Y-88900151D01*
X80098233Y-88900154D01*
X80093251Y-88902477D01*
X80059010Y-88926453D01*
X79910211Y-89030643D01*
X79910208Y-89030645D01*
X79905700Y-89033802D01*
X79743802Y-89195700D01*
X79740643Y-89200211D01*
X79737108Y-89204424D01*
X79736140Y-89203612D01*
X79685506Y-89244090D01*
X79614887Y-89251404D01*
X79551524Y-89219376D01*
X79515536Y-89158177D01*
X79512480Y-89141099D01*
X79512105Y-89137648D01*
X79508479Y-89122396D01*
X79463324Y-89001946D01*
X79454786Y-88986351D01*
X79378285Y-88884276D01*
X79365724Y-88871715D01*
X79263649Y-88795214D01*
X79248054Y-88786676D01*
X79127606Y-88741522D01*
X79112351Y-88737895D01*
X79061486Y-88732369D01*
X79054672Y-88732000D01*
X78482115Y-88732000D01*
X78466876Y-88736475D01*
X78465671Y-88737865D01*
X78464000Y-88745548D01*
X78464000Y-90168000D01*
X78443998Y-90236121D01*
X78390342Y-90282614D01*
X78338000Y-90294000D01*
X76920116Y-90294000D01*
X76904877Y-90298475D01*
X76903672Y-90299865D01*
X76902001Y-90307548D01*
X76902001Y-90884669D01*
X76902371Y-90891490D01*
X76907895Y-90942352D01*
X76911521Y-90957604D01*
X76956676Y-91078054D01*
X76965214Y-91093649D01*
X77041715Y-91195724D01*
X77054276Y-91208285D01*
X77156351Y-91284786D01*
X77171946Y-91293324D01*
X77292394Y-91338478D01*
X77307649Y-91342105D01*
X77358514Y-91347631D01*
X77365328Y-91348000D01*
X77852997Y-91348000D01*
X77921118Y-91368002D01*
X77967611Y-91421658D01*
X77977715Y-91491932D01*
X77948221Y-91556512D01*
X77942092Y-91563095D01*
X75573595Y-93931592D01*
X75511283Y-93965618D01*
X75440468Y-93960553D01*
X75383632Y-93918006D01*
X75358821Y-93851486D01*
X75358500Y-93842497D01*
X75358500Y-92601866D01*
X75351745Y-92539684D01*
X75300615Y-92403295D01*
X75213261Y-92286739D01*
X75096705Y-92199385D01*
X75084132Y-92194672D01*
X74978203Y-92154960D01*
X74921439Y-92112318D01*
X74896739Y-92045756D01*
X74911947Y-91976408D01*
X74933493Y-91947727D01*
X75034435Y-91847137D01*
X75038096Y-91843489D01*
X75097594Y-91760689D01*
X75165435Y-91666277D01*
X75168453Y-91662077D01*
X75199508Y-91599243D01*
X75265136Y-91466453D01*
X75265137Y-91466451D01*
X75267430Y-91461811D01*
X75309687Y-91322727D01*
X75330865Y-91253023D01*
X75330865Y-91253021D01*
X75332370Y-91248069D01*
X75361529Y-91026590D01*
X75363156Y-90960000D01*
X75344852Y-90737361D01*
X75290431Y-90520702D01*
X75201354Y-90315840D01*
X75080014Y-90128277D01*
X74929670Y-89963051D01*
X74925619Y-89959852D01*
X74925615Y-89959848D01*
X74758414Y-89827800D01*
X74758410Y-89827798D01*
X74754359Y-89824598D01*
X74713053Y-89801796D01*
X74679453Y-89767885D01*
X76902000Y-89767885D01*
X76906475Y-89783124D01*
X76907865Y-89784329D01*
X76915548Y-89786000D01*
X77937885Y-89786000D01*
X77953124Y-89781525D01*
X77954329Y-89780135D01*
X77956000Y-89772452D01*
X77956000Y-88750116D01*
X77951525Y-88734877D01*
X77950135Y-88733672D01*
X77942452Y-88732001D01*
X77365331Y-88732001D01*
X77358510Y-88732371D01*
X77307648Y-88737895D01*
X77292396Y-88741521D01*
X77171946Y-88786676D01*
X77156351Y-88795214D01*
X77054276Y-88871715D01*
X77041715Y-88884276D01*
X76965214Y-88986351D01*
X76956676Y-89001946D01*
X76911522Y-89122394D01*
X76907895Y-89137649D01*
X76902369Y-89188514D01*
X76902000Y-89195328D01*
X76902000Y-89767885D01*
X74679453Y-89767885D01*
X74663084Y-89751364D01*
X74648312Y-89681921D01*
X74673428Y-89615516D01*
X74700780Y-89588909D01*
X74744603Y-89557650D01*
X74879860Y-89461173D01*
X74918118Y-89423049D01*
X75034435Y-89307137D01*
X75038096Y-89303489D01*
X75097594Y-89220689D01*
X75165435Y-89126277D01*
X75168453Y-89122077D01*
X75199508Y-89059243D01*
X75265136Y-88926453D01*
X75265137Y-88926451D01*
X75267430Y-88921811D01*
X75322206Y-88741522D01*
X75330865Y-88713023D01*
X75330865Y-88713021D01*
X75332370Y-88708069D01*
X75361529Y-88486590D01*
X75363156Y-88420000D01*
X75344852Y-88197361D01*
X75290431Y-87980702D01*
X75201354Y-87775840D01*
X75124137Y-87656481D01*
X75082822Y-87592617D01*
X75082820Y-87592614D01*
X75080014Y-87588277D01*
X74929670Y-87423051D01*
X74925619Y-87419852D01*
X74925615Y-87419848D01*
X74758414Y-87287800D01*
X74758410Y-87287798D01*
X74754359Y-87284598D01*
X74713053Y-87261796D01*
X74663084Y-87211364D01*
X74648312Y-87141921D01*
X74673428Y-87075516D01*
X74700780Y-87048909D01*
X74744603Y-87017650D01*
X74879860Y-86921173D01*
X75038096Y-86763489D01*
X75168453Y-86582077D01*
X75194273Y-86529835D01*
X75265136Y-86386453D01*
X75265137Y-86386451D01*
X75267430Y-86381811D01*
X75332370Y-86168069D01*
X75361529Y-85946590D01*
X75363156Y-85880000D01*
X75344852Y-85657361D01*
X75290431Y-85440702D01*
X75201354Y-85235840D01*
X75130341Y-85126070D01*
X75082822Y-85052617D01*
X75082820Y-85052614D01*
X75080014Y-85048277D01*
X74929670Y-84883051D01*
X74925619Y-84879852D01*
X74925615Y-84879848D01*
X74758414Y-84747800D01*
X74758410Y-84747798D01*
X74754359Y-84744598D01*
X74653549Y-84688948D01*
X74603580Y-84638516D01*
X74588808Y-84569073D01*
X74613924Y-84502668D01*
X74625349Y-84489545D01*
X74719402Y-84395492D01*
X80770049Y-84395492D01*
X80770067Y-84395745D01*
X80775981Y-84404488D01*
X80795672Y-84422405D01*
X80801304Y-84426966D01*
X81063062Y-84615058D01*
X81069192Y-84618948D01*
X81350831Y-84775706D01*
X81357351Y-84778858D01*
X81655151Y-84902211D01*
X81662002Y-84904597D01*
X81971989Y-84992899D01*
X81979078Y-84994484D01*
X82297171Y-85046574D01*
X82304377Y-85047331D01*
X82626352Y-85062515D01*
X82633602Y-85062439D01*
X82955178Y-85040517D01*
X82962387Y-85039606D01*
X83279319Y-84980866D01*
X83286349Y-84979139D01*
X83594445Y-84884356D01*
X83601222Y-84881836D01*
X83896389Y-84752267D01*
X83902829Y-84748986D01*
X84181143Y-84586352D01*
X84187176Y-84582343D01*
X84421689Y-84406266D01*
X84430143Y-84394939D01*
X84423398Y-84382609D01*
X82612810Y-82572020D01*
X82598869Y-82564408D01*
X82597034Y-82564539D01*
X82590420Y-82568790D01*
X80777663Y-84381548D01*
X80770049Y-84395492D01*
X74719402Y-84395492D01*
X77001186Y-82113708D01*
X79738665Y-82113708D01*
X79747102Y-82435932D01*
X79747708Y-82443148D01*
X79793126Y-82762264D01*
X79794560Y-82769375D01*
X79876356Y-83081164D01*
X79878593Y-83088047D01*
X79995679Y-83388358D01*
X79998699Y-83394956D01*
X80149532Y-83679831D01*
X80153278Y-83686016D01*
X80335856Y-83951668D01*
X80340291Y-83957387D01*
X80395061Y-84020170D01*
X80408233Y-84028573D01*
X80418084Y-84022705D01*
X82227980Y-82212810D01*
X82235592Y-82198869D01*
X82235461Y-82197034D01*
X82231210Y-82190420D01*
X80419218Y-80378429D01*
X80406425Y-80371443D01*
X80395671Y-80379308D01*
X80251419Y-80563280D01*
X80247284Y-80569229D01*
X80078856Y-80844078D01*
X80075445Y-80850439D01*
X79939724Y-81142826D01*
X79937056Y-81149564D01*
X79835845Y-81455596D01*
X79833969Y-81462600D01*
X79768604Y-81778237D01*
X79767547Y-81785398D01*
X79738893Y-82106455D01*
X79738665Y-82113708D01*
X77001186Y-82113708D01*
X78606234Y-80508660D01*
X78618625Y-80497793D01*
X78637437Y-80483358D01*
X78643987Y-80478332D01*
X78668474Y-80446420D01*
X78668478Y-80446416D01*
X78741524Y-80351221D01*
X78802838Y-80203196D01*
X78810921Y-80141803D01*
X78822673Y-80052533D01*
X78823751Y-80044345D01*
X78819578Y-80012646D01*
X78819258Y-80007762D01*
X80771846Y-80007762D01*
X80778241Y-80019030D01*
X81905327Y-81146117D01*
X82587190Y-81827980D01*
X82601131Y-81835592D01*
X82602966Y-81835461D01*
X82609580Y-81831210D01*
X83294673Y-81146117D01*
X84420675Y-80020114D01*
X84428067Y-80006577D01*
X84421280Y-79996877D01*
X84333637Y-79922022D01*
X84327849Y-79917629D01*
X84060314Y-79737852D01*
X84054091Y-79734172D01*
X83767643Y-79586325D01*
X83761032Y-79583382D01*
X83459507Y-79469445D01*
X83452581Y-79467274D01*
X83139957Y-79388749D01*
X83132850Y-79387393D01*
X82813273Y-79345319D01*
X82806031Y-79344788D01*
X82483759Y-79339725D01*
X82476497Y-79340029D01*
X82155761Y-79372043D01*
X82148613Y-79373175D01*
X81833670Y-79441844D01*
X81826692Y-79443792D01*
X81521727Y-79548205D01*
X81515033Y-79550937D01*
X81224090Y-79689710D01*
X81217735Y-79693204D01*
X80944694Y-79864482D01*
X80938766Y-79868694D01*
X80780316Y-79995636D01*
X80771846Y-80007762D01*
X78819258Y-80007762D01*
X78818500Y-79996201D01*
X78818500Y-78576899D01*
X78838502Y-78508778D01*
X78872229Y-78473686D01*
X79049789Y-78349357D01*
X79049792Y-78349355D01*
X79054300Y-78346198D01*
X79216198Y-78184300D01*
X79227059Y-78168790D01*
X79315034Y-78043148D01*
X79347523Y-77996749D01*
X79349846Y-77991767D01*
X79349849Y-77991762D01*
X79365805Y-77957543D01*
X79412722Y-77904258D01*
X79480999Y-77884797D01*
X79548959Y-77905339D01*
X79594195Y-77957543D01*
X79610151Y-77991762D01*
X79610154Y-77991767D01*
X79612477Y-77996749D01*
X79644966Y-78043148D01*
X79732942Y-78168790D01*
X79743802Y-78184300D01*
X79905700Y-78346198D01*
X79910208Y-78349355D01*
X79910211Y-78349357D01*
X79938800Y-78369375D01*
X80093251Y-78477523D01*
X80098233Y-78479846D01*
X80098238Y-78479849D01*
X80294765Y-78571490D01*
X80300757Y-78574284D01*
X80306065Y-78575706D01*
X80306067Y-78575707D01*
X80516598Y-78632119D01*
X80516600Y-78632119D01*
X80521913Y-78633543D01*
X80750000Y-78653498D01*
X80978087Y-78633543D01*
X80983400Y-78632119D01*
X80983402Y-78632119D01*
X81193933Y-78575707D01*
X81193935Y-78575706D01*
X81199243Y-78574284D01*
X81205235Y-78571490D01*
X81401762Y-78479849D01*
X81401767Y-78479846D01*
X81406749Y-78477523D01*
X81561200Y-78369375D01*
X81589789Y-78349357D01*
X81589792Y-78349355D01*
X81594300Y-78346198D01*
X81756198Y-78184300D01*
X81767059Y-78168790D01*
X81855034Y-78043148D01*
X81887523Y-77996749D01*
X81889846Y-77991767D01*
X81889849Y-77991762D01*
X81905805Y-77957543D01*
X81952722Y-77904258D01*
X82020999Y-77884797D01*
X82088959Y-77905339D01*
X82134195Y-77957543D01*
X82150151Y-77991762D01*
X82150154Y-77991767D01*
X82152477Y-77996749D01*
X82184966Y-78043148D01*
X82272942Y-78168790D01*
X82283802Y-78184300D01*
X82445700Y-78346198D01*
X82450208Y-78349355D01*
X82450211Y-78349357D01*
X82478800Y-78369375D01*
X82633251Y-78477523D01*
X82638233Y-78479846D01*
X82638238Y-78479849D01*
X82834765Y-78571490D01*
X82840757Y-78574284D01*
X82846065Y-78575706D01*
X82846067Y-78575707D01*
X83056598Y-78632119D01*
X83056600Y-78632119D01*
X83061913Y-78633543D01*
X83290000Y-78653498D01*
X83518087Y-78633543D01*
X83523400Y-78632119D01*
X83523402Y-78632119D01*
X83733933Y-78575707D01*
X83733935Y-78575706D01*
X83739243Y-78574284D01*
X83745235Y-78571490D01*
X83941762Y-78479849D01*
X83941767Y-78479846D01*
X83946749Y-78477523D01*
X84101200Y-78369375D01*
X84129789Y-78349357D01*
X84129792Y-78349355D01*
X84134300Y-78346198D01*
X84296198Y-78184300D01*
X84307059Y-78168790D01*
X84395034Y-78043148D01*
X84427523Y-77996749D01*
X84429846Y-77991767D01*
X84429849Y-77991762D01*
X84445805Y-77957543D01*
X84492722Y-77904258D01*
X84560999Y-77884797D01*
X84628959Y-77905339D01*
G37*
%TD.AperFunction*%
%TD*%
M02*
